<svg version="1.2" xmlns="http://www.w3.org/2000/svg" viewBox="0 0 118 114" width="94" height="93">
	<defs>
		<clipPath clipPathUnits="userSpaceOnUse" id="cp1">
			<path d="m12.22 0.26h93.06v113.78h-93.06z"/>
		</clipPath>
	</defs>
	<style>
		.s0 { fill: #c8dcdb } 
	</style>
	<g id="Clip-Path: Clip-Path" clip-path="url(#cp1)">
		<g id="Clip-Path">
			<g>
				<path class="s0" d="m105.29 26.76v1.15l-1.08 1.11-12.15 6.72c-1.22-0.29-1.94-1.26-1.35-2.49l12.1-7.24c1.28-0.5 1.57-0.01 2.47 0.74z"/>
				<path class="s0" d="m59.21 0.26l0.93 1.48c-0.43 4.24 0.53 9.5 0 13.62-0.24 1.88-2.97 2.07-3.24-0.23-0.18-1.54-0.17-13.03 0.17-13.9 0.14-0.33 0.6-0.62 0.75-0.97z"/>
				<path class="s0" d="m85.98 39.85c3.37 1.69 4.64 6.2 3.23 9.62 3.1 2.16 4.69 5.59 3.76 9.33-0.44 1.79-1.95 4.25-3.81 4.84 1.53 3.85 0.16 7.76-3.2 10.05 4.25 9.1-6.33 16.87-13.61 9.99-3.69 5.94-12.26 3.7-12.91-3.34l-0.01-47.02c0.12-7.16 9.03-9.56 13.04-3.82 6-5.51 15.21-1.23 14.39 7.05-0.11 1.2-0.73 2.16-0.88 3.31zm-4.35-0.58c0.28-0.32 0.8-0.47 1.19-1.01 2.38-3.32-0.29-8.15-4.36-8.07-4.81 0.09-5.96 5.68-5.09 9.48 0.31 1.35 1.85 2.94 0.36 4.01-2.71 1.95-3.88-4.5-3.89-6.19 0-2.25 1.25-4.47-0.39-6.58-1.27-1.65-3.55-1.84-5.24-0.67-1.35 0.95-1.44 1.99-1.55 3.53-1.02 14.94 0.8 31.05 0 46.11-0.13 4.82 6.8 5.35 7.56 0.85 0.19-1.15-0.36-2.93 1.37-3.24 1.85-0.35 1.88 2.11 2.64 3.25 3.13 4.77 10.83 1.71 9.25-4.41-0.42-1.62-2.41-2.36-2.31-3.58 0.12-1.58 2.03-1.35 3.09-1.94 1.91-1.05 2.7-3.36 2.08-5.39-0.63-2.03-2.26-1.91-3.83-2.86-1.5-0.89-6.4-5.03-3.18-6.37 1.46-0.61 1.82 0.86 2.47 1.55 1.27 1.32 4.51 4.09 6.34 2.88 2.36-1.56 2.43-5.66 0.43-7.58-1.33-1.28-2.93-0.09-3.61-1.71-0.51-1.24 0.6-1.71 1.03-2.53 1.18-2.28 0.48-5.37-1.97-6.44-0.77-0.33-1.79-0.24-2.36-0.85-0.63-0.68-0.62-1.57-0.03-2.24z"/>
				<path class="s0" d="m47.98 86.62c-0.76-0.81 0.16-4.57-0.51-5.13l-5.38-2.15c-2.16 1.49-2.78 4.59-5.57 2.28-1.4-1.15-6.22-5.82-7.11-7.17-1.75-2.58 1.62-3.34 2.59-5.35l-2.06-5.21c-2.32-0.3-5.46 1-5.75-2.2-0.21-2.31-0.27-8.16 0.03-10.36 0.39-2.82 3.76-1.41 5.72-1.77l2.06-5.36c-0.84-1.24-3.61-2.85-3.09-4.53l8.2-8.39c1.77-1.87 4.18 2.9 5.07 2.76l5.48-2.23c0.44-1.84-1.08-5.21 1.53-5.51 1.17-0.13 4.64-0.15 5.75 0.02q1.25 0.21 1.29 1.47l-0.11 15.81c-0.39 1.22-2.75 0.99-3.82 1.24-12.92 3.07-12.49 20.94 0.64 23.59 1.23 0.24 2.72-0.33 3.28 1.32l-0.12 16.47c-0.43 0.57-0.9 0.85-1.6 0.93-1.11 0.14-5.87 0.17-6.52-0.53zm5.01-57.1h-2.07v3.57c0 1.62-3.39 2.04-4.6 2.54-0.92 0.37-3.73 2.07-4.31 2.12-1.37 0.14-3.2-3.02-3.84-2.92l-5.34 5.52c0.8 1.03 3.04 2.35 2.89 3.79-0.05 0.51-1.39 2.58-1.72 3.36-0.38 0.9-1.6 5.3-2.32 5.3h-4.26v7.49l0.34 0.34h3.92c0.96 0 1.51 3.26 1.85 4.14 0.42 1.1 2.12 3.8 2.19 4.52 0.14 1.46-2.08 2.74-2.88 3.78l5.29 5.54c1.08-0.8 2.44-3.14 3.9-2.99 0.73 0.07 3.43 1.77 4.52 2.18 0.9 0.34 2.99 0.7 3.55 1.06 0.26 0.19 0.82 1.26 0.82 1.48v3.57h2.07v-12.21c-17.69-2.63-17.8-27.81 0-30.2 0 0 0-11.99 0-11.98z"/>
				<path class="s0" d="m68.19 104.88c-0.61 12.21-18.25 12.2-18.88 0-1.42-0.18-5.66 0.59-6.34-0.91v-11.29l1.61-0.71c9.13 0.64 19.35-0.82 28.36 0 0.65 0.06 1.17 0.13 1.6 0.71v11.29c-0.69 1.5-4.92 0.73-6.35 0.91zm3.23-9.67h-25.34v6.45h25.34zm-6.45 9.68h-12.44c0.49 7.92 11.95 7.92 12.44 0z"/>
				<path class="s0" d="m12.74 29.45c-1.25-1.15-0.1-3.29 1.55-2.82l11.74 6.72c1.85 1.18 0.86 3.67-1.38 2.99z"/>
				<path class="s0" d="m31.42 7.93c0.61-0.77 2.01-0.67 2.56 0.17l6.81 11.85c0.7 1.96-1.71 3.11-2.97 1.36-2.39-3.32-4.16-8-6.53-11.44-0.28-0.57-0.29-1.44 0.13-1.94z"/>
				<path class="s0" d="m78.96 21.4c-1.17 0.97-3.28-0.2-2.6-1.79l6.71-11.74c1.03-1.71 3.46-0.76 3 1.15z"/>
				<path class="s0" d="m66.42 58.27c-0.79-0.79-0.5-2.29 0.57-2.65 1.9-0.64 2.82-0.06 4.44-2.01 1.28-1.54 0.8-3.19 1.46-4.06 1.09-1.39 2.92-0.45 2.92 1.3 0.01 2.64-2.05 5.73-4.38 6.92-1.15 0.57-4.02 1.49-5.02 0.5z"/>
				<path class="s0" d="m76.44 67.12c1.06-0.17 2.05 0.86 1.9 1.92-0.17 1.15-4.7 3.38-5.84 3.85-1.55 0.63-7.17 2.77-6.83-0.6 0.16-1.62 2.33-1.3 3.46-1.62 0.67-0.2 1.41-0.45 2.06-0.7 1.33-0.53 4.38-2.71 5.25-2.85z"/>
			</g>
		</g>
	</g>
</svg>