<svg width="20" height="20" viewBox="0 0 20 20" fill="none" xmlns="http://www.w3.org/2000/svg">
<g id="wreath (1) 1">
<g id="Union">
<path fill-rule="evenodd" clip-rule="evenodd" d="M4.92733 4.03547C4.8003 4.44148 4.37678 4.58688 4.26905 4.6175C4.18225 4.54719 3.85077 4.24586 3.8946 3.8225C3.94085 3.37578 4.42999 2.90484 4.64608 2.7168C4.76163 2.96313 5.05053 3.64227 4.92733 4.03547ZM4.29387 4.6355L4.28906 4.63281L4.29044 4.63381L4.28988 4.63462L4.29387 4.6355ZM3.29992 7.16477C3.40212 6.80141 3.53252 6.44658 3.68992 6.10352L3.69594 6.10231L3.69594 6.10231C3.70328 6.10084 3.71075 6.09935 3.71773 6.09758C3.76799 6.08864 3.81686 6.0732 3.86312 6.05164C3.87166 6.04791 3.87927 6.04234 3.88539 6.03531C3.88983 6.0307 3.89352 6.02543 3.89633 6.01969C3.91815 5.97427 3.93371 5.92609 3.94258 5.87648C3.96541 5.77519 3.97559 5.67146 3.97289 5.56766C3.99977 5.53952 4.03206 5.51711 4.06783 5.50179C4.1036 5.48647 4.1421 5.47855 4.18102 5.47852C4.22927 5.47851 4.27674 5.49074 4.31898 5.51406C4.32229 5.51602 4.32526 5.5182 4.32821 5.52036L4.32821 5.52036C4.33056 5.52208 4.3329 5.5238 4.33539 5.52539C4.32539 5.67373 4.34803 5.82245 4.40172 5.96109C4.23825 6.26461 4.09851 6.58031 3.98375 6.90539C3.89213 7.01325 3.82464 7.13947 3.78582 7.27556C3.747 7.41166 3.73774 7.55448 3.75867 7.69445C3.65722 8.15473 3.6058 8.62462 3.60531 9.09594C3.61011 10.7263 4.23946 12.2928 5.36391 13.4733C5.44163 13.6588 5.56017 13.8243 5.7107 13.9577L5.73648 13.9728L5.7693 13.9848L5.79875 13.9898C5.82734 13.9898 5.86781 13.9873 5.91469 13.982C6.32325 14.314 6.77292 14.592 7.25258 14.8091C7.36783 14.9736 7.51702 15.1114 7.69008 15.2133L7.71836 15.2232L7.75453 15.2288L7.7843 15.228C7.89247 15.2037 7.99737 15.1667 8.0968 15.1177C8.2055 15.1485 8.31487 15.1762 8.42492 15.2005C8.63461 15.2467 8.84547 15.2841 9.05539 15.317C8.73218 15.4029 8.42498 15.5405 8.1457 15.7245C7.70852 15.6158 7.2836 15.4626 6.87758 15.2674C6.70652 14.9761 6.42934 14.7623 6.10414 14.6709C6.01338 14.6484 5.92013 14.6376 5.82664 14.6387C5.73049 14.5689 5.63633 14.4964 5.54414 14.4212C5.33601 14.2511 5.13845 14.0685 4.95258 13.8743C4.84963 13.5755 4.64009 13.3251 4.36406 13.1712C4.17411 12.91 4.00263 12.6359 3.85086 12.3509C3.84875 12.3281 3.84594 12.3037 3.84148 12.2734C3.80265 11.9838 3.67218 11.7141 3.46914 11.5039C3.32074 11.1061 3.209 10.6955 3.13531 10.2773C3.16932 10.2612 3.20137 10.2412 3.23086 10.2178C3.2391 10.212 3.24591 10.2043 3.25078 10.1955C3.25442 10.1895 3.25706 10.183 3.25859 10.1762C3.2711 10.1205 3.27615 10.0634 3.27359 10.0063C3.2777 9.73195 3.19345 9.46352 3.03328 9.2407L3.03328 9.24047C3.03226 9.19242 3.03125 9.14445 3.03125 9.09641C3.0316 8.74163 3.0586 8.38737 3.11203 8.03664C3.15098 8.02908 3.18888 8.01688 3.22492 8.00031C3.23255 7.99711 3.23946 7.99241 3.24523 7.98648C3.25124 7.98102 3.25612 7.97444 3.25961 7.96711C3.28351 7.91877 3.30092 7.8675 3.31141 7.81461C3.36554 7.60084 3.36157 7.37649 3.29992 7.16477ZM8.41266 10.8695L8.70555 9.16234L8.67016 9.05344L7.42969 7.84422L9.14391 7.59516L9.23656 7.52789L10.0032 5.97461L10.7698 7.52789L10.8624 7.59516L12.5766 7.84422L11.3363 9.05344L11.3008 9.16234L11.5937 10.8695L10.0605 10.0635H9.94586L8.41266 10.8695ZM11.7826 16.0781L11.7687 16.0814C11.4666 16.1484 11.1713 16.1965 10.8828 16.239C11.3991 16.4216 11.7522 16.7285 11.8764 17.3498C11.892 17.4241 11.9362 17.4894 11.9994 17.5315C12.0626 17.5736 12.1398 17.5892 12.2145 17.5749C12.2891 17.56 12.3547 17.516 12.3969 17.4526C12.4391 17.3893 12.4544 17.3118 12.4395 17.2372C12.3323 16.7001 12.0991 16.3352 11.7826 16.0781ZM13.8936 14.6725C13.5684 14.7639 13.2912 14.9777 13.1202 15.269C12.666 15.4877 12.1881 15.6535 11.6961 15.7632C11.2934 15.8525 10.8972 15.9083 10.5135 15.9624L10.5133 15.9624C9.25179 16.1401 8.34039 16.2685 8.12369 17.3519C8.1165 17.3891 8.10203 17.4245 8.08112 17.456C8.0602 17.4876 8.03325 17.5147 8.00181 17.5358C7.97038 17.5569 7.93508 17.5716 7.89795 17.579C7.86082 17.5864 7.82259 17.5864 7.78547 17.5789C7.74834 17.5715 7.71305 17.5568 7.68163 17.5357C7.65021 17.5146 7.62327 17.4874 7.60238 17.4559C7.58148 17.4243 7.56704 17.3889 7.55987 17.3517C7.55271 17.3146 7.55297 17.2763 7.56064 17.2393C7.85697 15.7575 9.10744 15.5809 10.4348 15.3935L10.4369 15.3932C10.8081 15.3409 11.1921 15.2868 11.5718 15.2025C11.6819 15.178 11.7913 15.1504 11.8999 15.1196C11.9994 15.1687 12.1043 15.2057 12.2124 15.23L12.2421 15.2308L12.2783 15.2252L12.3067 15.2153C12.4797 15.1134 12.6289 14.9756 12.7442 14.8111C13.224 14.5941 13.6739 14.3161 14.0826 13.984C14.1298 13.989 14.1699 13.9914 14.1985 13.9918L14.228 13.9868L14.2608 13.9749L14.2866 13.9597C14.4371 13.8264 14.5557 13.6608 14.6335 13.4753C15.7578 12.2949 16.3871 10.7284 16.392 9.09816C16.3915 8.62681 16.3401 8.1569 16.2387 7.69659C16.2596 7.55663 16.2504 7.4138 16.2115 7.27771C16.1727 7.14161 16.1052 7.0154 16.0136 6.90753C15.8988 6.58249 15.7591 6.26681 15.5956 5.96331C15.6493 5.82467 15.672 5.67595 15.662 5.52761C15.6645 5.52608 15.6668 5.52431 15.6692 5.52254C15.6722 5.52034 15.6751 5.51813 15.6784 5.51636C15.7114 5.49801 15.7478 5.48641 15.7853 5.48222C15.8229 5.47804 15.8609 5.48136 15.8971 5.49199C15.946 5.50637 15.9901 5.53362 16.0249 5.57089C16.0223 5.67433 16.0325 5.77769 16.0553 5.87863C16.0641 5.92823 16.0797 5.97641 16.1015 6.02183C16.1043 6.02757 16.108 6.03285 16.1124 6.03745C16.1186 6.04448 16.1262 6.05005 16.1347 6.05378C16.181 6.07534 16.2298 6.09079 16.2801 6.09972L16.2969 6.10312L16.3078 6.10527C16.4652 6.44834 16.5956 6.80316 16.6978 7.16652C16.6362 7.37824 16.6322 7.60259 16.6863 7.81636C16.6968 7.86925 16.7142 7.92053 16.7381 7.96886C16.7416 7.97618 16.7465 7.98276 16.7525 7.98824C16.7583 7.99415 16.7653 7.99885 16.7729 8.00206C16.809 8.01863 16.8469 8.03083 16.8858 8.03839C16.9392 8.38912 16.9662 8.74338 16.9666 9.09816C16.9666 9.14628 16.9656 9.19441 16.9645 9.24245C16.8047 9.46483 16.7204 9.73267 16.7242 10.0065C16.722 10.0627 16.7267 10.1189 16.7382 10.1739C16.7398 10.1832 16.7434 10.192 16.7487 10.1999C16.7533 10.2076 16.7595 10.2143 16.7669 10.2195C16.7964 10.2429 16.8285 10.2629 16.8625 10.2791C16.7888 10.6973 16.6771 11.1078 16.5287 11.5057C16.3252 11.7163 16.1946 11.9867 16.1561 12.2771C16.1518 12.3065 16.1491 12.3306 16.147 12.3525C15.9952 12.6375 15.8237 12.9116 15.6337 13.1728C15.3577 13.3267 15.1481 13.5771 15.0452 13.8759C14.8593 14.0701 14.6617 14.2527 14.4535 14.4228C14.3612 14.4978 14.267 14.5703 14.171 14.6403C14.0776 14.6392 13.9843 14.65 13.8936 14.6725ZM2.94891 5.80008C3.26086 6.05516 3.66234 5.95062 3.76492 5.91766C3.79797 5.815 3.9025 5.41367 3.64734 5.10156C3.40367 4.80359 2.72734 4.67867 2.46875 4.64062C2.5057 4.91203 2.62375 5.5343 2.94891 5.80008ZM3.78906 5.90875C3.79064 5.90783 3.79227 5.90699 3.79394 5.90625L3.79113 5.90906L3.79069 5.90812L3.78906 5.90875ZM4.68269 5.1C4.58957 5.21209 4.5292 5.3477 4.50824 5.49191C4.48727 5.63611 4.50652 5.7833 4.56387 5.91727C4.69783 5.97459 4.84502 5.99382 4.98922 5.97286C5.13342 5.95189 5.26903 5.89153 5.38113 5.79844C5.67801 5.55555 5.81699 4.87156 5.86113 4.60352C5.59644 4.65273 4.92535 4.8032 4.68269 5.1ZM3.12711 7.8625C3.01867 7.8943 2.57422 7.9993 2.24383 7.71805C1.89508 7.42117 1.78273 6.7375 1.75 6.44922C2.02156 6.49391 2.75937 6.64297 3.01891 6.97398C3.28664 7.31563 3.16344 7.75531 3.12711 7.8625ZM3.15325 7.85352L3.14844 7.85595L3.15006 7.85539L3.15044 7.85627L3.15325 7.85352ZM5.4132 6.48633C5.3614 6.76797 5.19672 7.5143 4.86711 7.77266C4.74333 7.87122 4.59471 7.93361 4.43767 7.95294C4.28064 7.97227 4.12132 7.94779 3.97734 7.88219C3.9177 7.73563 3.89975 7.57544 3.92548 7.41932C3.95121 7.26321 4.01961 7.11724 4.12312 6.99758C4.39445 6.67914 5.1332 6.53187 5.4132 6.48633ZM2.13586 10.1837C2.56039 10.3965 3.0025 10.166 3.10398 10.1061C3.11477 9.98896 3.13484 9.49068 2.76109 9.19756C2.4007 8.9149 1.57805 8.95146 1.28906 8.9742C1.395 9.26318 1.68953 9.95974 2.13586 10.1837ZM3.1295 10.0898L3.12712 10.0936L3.12644 10.0928L3.125 10.0937L3.1295 10.0898ZM3.99075 9.91086C4.15937 9.94315 4.33363 9.92807 4.49419 9.86729C4.65475 9.80651 4.79532 9.70241 4.90029 9.56656C5.18216 9.20719 5.15982 8.37125 5.14146 8.07031C4.86638 8.1868 4.11872 8.53359 3.91419 8.94133C3.83607 9.09421 3.80187 9.26576 3.81538 9.43692C3.8289 9.60808 3.8896 9.77213 3.99075 9.91086ZM3.18359 11.4896C3.63461 11.7467 3.68867 12.2878 3.69477 12.4103C3.59992 12.4877 3.16242 12.8106 2.66898 12.6481C2.15281 12.4783 1.72578 11.772 1.57031 11.4851C1.86695 11.4164 2.75 11.2424 3.18359 11.4896ZM3.71306 12.3948L3.71494 12.3906C3.71344 12.3922 3.71213 12.3937 3.71094 12.3953L3.71225 12.3941L3.71306 12.3948ZM5.1203 11.9388C4.95782 12.0293 4.77345 12.0729 4.58764 12.065L4.58639 12.0644C4.45574 11.932 4.36442 11.7659 4.3226 11.5846C4.28077 11.4033 4.29009 11.214 4.34952 11.0377C4.50491 10.5657 5.25913 10.0733 5.5278 9.91016C5.59405 10.2204 5.75428 11.1206 5.50811 11.5524C5.41702 11.7146 5.28279 11.8483 5.1203 11.9388ZM4.25875 13.3016C3.76906 13.0658 2.82125 13.3243 2.51562 13.4183C2.70039 13.7107 3.21547 14.4486 3.78836 14.5942C4.33789 14.7336 4.7868 14.3471 4.87914 14.2594C4.86492 14.1331 4.76984 13.548 4.25875 13.3016ZM4.90231 14.2363L4.90063 14.2409L4.89969 14.2401L4.89844 14.2415C4.89963 14.2397 4.90092 14.238 4.90231 14.2363ZM5.80576 13.8259L5.80935 13.8272C6.01066 13.8224 6.20667 13.7617 6.3755 13.6519C6.54433 13.5422 6.67933 13.3877 6.76544 13.2056C7.00037 12.7181 6.7549 11.7501 6.66287 11.4297C6.39271 11.6198 5.6063 12.2109 5.47294 12.7352C5.42194 12.93 5.42605 13.1351 5.48482 13.3277C5.54358 13.5203 5.65469 13.6928 5.80576 13.8259ZM6.91606 15.6747L6.91506 15.6741L6.91406 15.6756C6.91488 15.6738 6.91575 15.6719 6.91681 15.6699L6.91606 15.6747ZM6.06656 14.8305C5.51086 14.6852 4.58008 15.1491 4.28906 15.3056C4.53562 15.5668 5.21922 16.229 5.84234 16.2634C6.44313 16.2953 6.82672 15.8018 6.90172 15.6952C6.86281 15.5705 6.64789 14.9823 6.06656 14.8305ZM7.76839 15.0645L7.76293 15.0636C7.57976 14.9568 7.42988 14.8012 7.33004 14.6141C7.2302 14.427 7.18433 14.2159 7.19753 14.0043C7.2291 13.4334 7.92707 12.6602 8.16324 12.4141C8.32058 12.7202 8.77488 13.6747 8.63035 14.2285C8.57833 14.4341 8.47016 14.6211 8.31795 14.7688C8.16573 14.9164 7.97546 15.0188 7.76839 15.0645ZM15.7556 4.62361C15.7537 4.6233 15.7519 4.62311 15.75 4.62305L15.7517 4.62336V4.62442L15.7556 4.62361ZM16.1018 3.82258C16.1456 4.24563 15.8142 4.5468 15.7273 4.6175C15.6196 4.58711 15.1961 4.44172 15.069 4.03547C14.9458 3.64227 15.2347 2.96313 15.3503 2.7168C15.5664 2.90477 16.0555 3.3757 16.1018 3.82258ZM17.0529 5.79977C17.378 5.53414 17.4961 4.91172 17.533 4.64062C17.2745 4.67844 16.5981 4.80336 16.3545 5.10156C16.0993 5.41367 16.2037 5.815 16.2369 5.91766C16.3395 5.95039 16.7409 6.05484 17.0529 5.79977ZM16.2423 5.93945L16.2446 5.94389L16.2422 5.94145L16.2429 5.94114L16.2423 5.93945ZM14.6205 5.79836C14.7326 5.89147 14.8682 5.95184 15.0124 5.9728C15.1566 5.99377 15.3038 5.97452 15.4377 5.91719C15.4951 5.78323 15.5144 5.63604 15.4934 5.49184C15.4725 5.34763 15.4121 5.21201 15.319 5.09992C15.0761 4.80305 14.4049 4.6525 14.1406 4.60352C14.1848 4.87164 14.3237 5.55578 14.6205 5.79836ZM16.8831 7.88477L16.8858 7.88958L16.8828 7.88683L16.8837 7.88639L16.8831 7.88477ZM16.9807 6.97398C16.713 7.31547 16.8362 7.75523 16.8725 7.8625C16.9809 7.89438 17.4253 7.99961 17.7558 7.71805C18.1043 7.42117 18.2167 6.73758 18.2496 6.44922C17.978 6.49406 17.2399 6.64328 16.9807 6.97398ZM15.132 7.77273C14.8027 7.51461 14.6377 6.76797 14.5859 6.48633C14.8659 6.53172 15.6044 6.67891 15.876 6.9975C15.9795 7.11717 16.0479 7.26313 16.0737 7.41925C16.0994 7.57536 16.0814 7.73556 16.0218 7.88211C15.8778 7.94779 15.7185 7.97234 15.5614 7.95303C15.4044 7.93373 15.2557 7.87132 15.132 7.77273ZM16.895 10.1061C16.9966 10.1659 17.4388 10.3966 17.8631 10.1835C18.3094 9.95963 18.6039 9.26307 18.7099 8.97416C18.4208 8.95151 17.5983 8.91487 17.2378 9.19752C16.8642 9.49049 16.8842 9.98869 16.895 10.1061ZM16.8994 10.1289L16.9009 10.1343L16.8984 10.1306H16.8994V10.1289ZM16.0119 9.91086C16.113 9.77213 16.1737 9.60807 16.1872 9.43692C16.2007 9.26576 16.1665 9.09422 16.0884 8.94133C15.8839 8.53359 15.1362 8.1868 14.8612 8.07031C14.843 8.37125 14.8208 9.20758 15.1023 9.56656C15.2073 9.70243 15.3479 9.80653 15.5084 9.86731C15.669 9.92809 15.8433 9.94317 16.0119 9.91086ZM16.3047 12.4104C16.3108 12.2881 16.3646 11.747 16.8159 11.4898C17.2494 11.2422 18.1323 11.4165 18.4291 11.4852C18.2737 11.7721 17.8466 12.4784 17.3305 12.6483C16.8371 12.8109 16.3995 12.4879 16.3047 12.4104ZM16.3066 12.4398C16.3066 12.4377 16.3062 12.4356 16.3059 12.4336V12.4354H16.3047L16.3066 12.4398ZM14.4917 11.5524C14.2454 11.1206 14.4061 10.2204 14.472 9.91016C14.7405 10.0732 15.4948 10.5656 15.6502 11.0378C15.7097 11.2141 15.719 11.4034 15.6772 11.5847C15.6353 11.7659 15.544 11.932 15.4134 12.0645L15.4121 12.065C15.2263 12.0731 15.0419 12.0295 14.8793 11.939C14.7168 11.8485 14.5826 11.7147 14.4917 11.5524ZM15.1172 14.283L15.1188 14.2875L15.1188 14.2844L15.1184 14.2812V14.2831L15.1172 14.283ZM15.1172 14.2593C15.1316 14.1329 15.2265 13.5479 15.7376 13.3016C16.2268 13.0658 17.1747 13.3243 17.4807 13.4184C17.2959 13.7107 16.7809 14.4486 16.208 14.5942C15.6584 14.7336 15.2095 14.347 15.1172 14.2593ZM14.1874 13.8274L14.191 13.8262C14.3422 13.6931 14.4534 13.5206 14.5122 13.3279C14.5711 13.1353 14.5752 12.9301 14.5242 12.7352C14.3907 12.2104 13.6043 11.6197 13.3342 11.4297C13.2422 11.75 12.9967 12.7181 13.2317 13.2056C13.3178 13.3876 13.4527 13.5422 13.6215 13.652C13.7902 13.7618 13.9862 13.8225 14.1874 13.8274ZM13.1016 15.695C13.1405 15.5705 13.3555 14.9821 13.9367 14.8304C14.4921 14.6857 15.4231 15.149 15.7142 15.3054C15.4677 15.5666 14.7839 16.2287 14.1609 16.2632C13.5608 16.2945 13.1767 15.8016 13.1016 15.695ZM13.0938 15.7182L13.0945 15.723C13.0949 15.721 13.0952 15.7189 13.0954 15.7168L13.0949 15.7186L13.0938 15.7182ZM11.6841 14.7705C11.5319 14.6229 11.4237 14.4359 11.3717 14.2303C11.2274 13.677 11.6815 12.722 11.8389 12.416C12.075 12.662 12.7732 13.4349 12.8045 14.0063C12.8176 14.2178 12.7718 14.4289 12.6719 14.6159C12.5721 14.803 12.4223 14.9586 12.2392 15.0654L12.2336 15.0662C12.0266 15.0205 11.8363 14.9182 11.6841 14.7705Z" fill="#191B1F"/>
<path d="M4.26905 4.6175L4.2061 4.6952L4.24645 4.72789L4.29639 4.71369L4.26905 4.6175ZM4.92733 4.03547L4.83191 4.00557L4.83189 4.00561L4.92733 4.03547ZM3.8946 3.8225L3.79513 3.8122L3.79513 3.8122L3.8946 3.8225ZM4.64608 2.7168L4.73662 2.67433L4.68036 2.5544L4.58044 2.64136L4.64608 2.7168ZM4.28906 4.63281L4.33782 4.5455L4.23025 4.71369L4.28906 4.63281ZM4.29387 4.6355L4.27251 4.73319L4.34263 4.54819L4.29387 4.6355ZM4.29044 4.63381L4.37266 4.69073L4.42826 4.6104L4.34925 4.55294L4.29044 4.63381ZM4.28988 4.63462L4.20765 4.57771L4.12271 4.70042L4.26851 4.73231L4.28988 4.63462ZM3.68992 6.10352L3.67024 6.00547L3.62028 6.0155L3.59903 6.06181L3.68992 6.10352ZM3.29992 7.16477L3.20366 7.13769L3.19591 7.16524L3.20391 7.19272L3.29992 7.16477ZM3.69594 6.10231L3.71562 6.20037L3.71763 6.19993L3.69594 6.10231ZM3.69594 6.10231L3.67638 6.00421L3.67425 6.00469L3.69594 6.10231ZM3.71773 6.09758L3.70018 5.99886L3.69308 6.00066L3.71773 6.09758ZM3.86312 6.05164L3.8231 5.95997L3.82088 5.961L3.86312 6.05164ZM3.88539 6.03531L3.81325 5.96589L3.81001 5.9696L3.88539 6.03531ZM3.89633 6.01969L3.98615 6.06365L3.98646 6.063L3.89633 6.01969ZM3.94258 5.87648L3.84493 5.85447L3.84414 5.85889L3.94258 5.87648ZM3.97289 5.56766L3.90058 5.49859L3.87184 5.52867L3.87292 5.57026L3.97289 5.56766ZM4.18102 5.47852L4.181 5.37852L4.18092 5.37852L4.18102 5.47852ZM4.31898 5.51406L4.36996 5.42798L4.36732 5.42652L4.31898 5.51406ZM4.32821 5.52036L4.39892 5.44965L4.39351 5.44424L4.38734 5.43971L4.32821 5.52036ZM4.32821 5.52036L4.2575 5.59107L4.26291 5.59648L4.26908 5.60101L4.32821 5.52036ZM4.33539 5.52539L4.43516 5.53212L4.43915 5.47302L4.38923 5.44112L4.33539 5.52539ZM4.40172 5.96109L4.48976 6.00851L4.51161 5.96795L4.49497 5.92498L4.40172 5.96109ZM3.98375 6.90539L4.05997 6.97013L4.07191 6.95607L4.07805 6.93868L3.98375 6.90539ZM3.78582 7.27556L3.88199 7.303L3.78582 7.27556ZM3.75867 7.69445L3.85633 7.71598L3.8603 7.69794L3.85757 7.67966L3.75867 7.69445ZM3.60531 9.09594L3.50531 9.09583L3.50531 9.09623L3.60531 9.09594ZM5.36391 13.4733L5.45613 13.4346L5.44902 13.4176L5.43632 13.4043L5.36391 13.4733ZM5.7107 13.9577L5.6444 14.0325L5.65166 14.0389L5.66003 14.0439L5.7107 13.9577ZM5.73648 13.9728L5.68581 14.059L5.69368 14.0636L5.70226 14.0668L5.73648 13.9728ZM5.7693 13.9848L5.73507 14.0787L5.7436 14.0818L5.75256 14.0834L5.7693 13.9848ZM5.79875 13.9898L5.78201 14.0884L5.79032 14.0898H5.79875V13.9898ZM5.91469 13.982L5.97776 13.9044L5.94509 13.8778L5.90326 13.8826L5.91469 13.982ZM7.25258 14.8091L7.33447 14.7517L7.31876 14.7293L7.29381 14.718L7.25258 14.8091ZM7.69008 15.2133L7.63935 15.2995L7.64776 15.3044L7.65697 15.3076L7.69008 15.2133ZM7.71836 15.2232L7.68525 15.3176L7.69392 15.3206L7.70299 15.322L7.71836 15.2232ZM7.75453 15.2288L7.73916 15.3276L7.74824 15.3291L7.75742 15.3288L7.75453 15.2288ZM7.7843 15.228L7.78718 15.3279L7.79679 15.3276L7.80617 15.3255L7.7843 15.228ZM8.0968 15.1177L8.12413 15.0215L8.0871 15.0109L8.05257 15.028L8.0968 15.1177ZM8.42492 15.2005L8.4033 15.2982L8.40342 15.2982L8.42492 15.2005ZM9.05539 15.317L9.08107 15.4137L9.07091 15.2182L9.05539 15.317ZM8.1457 15.7245L8.12157 15.8215L8.16411 15.8321L8.20071 15.808L8.1457 15.7245ZM6.87758 15.2674L6.79135 15.3181L6.80678 15.3443L6.83425 15.3575L6.87758 15.2674ZM6.10414 14.6709L6.13123 14.5745L6.12815 14.5738L6.10414 14.6709ZM5.82664 14.6387L5.76787 14.7197L5.7947 14.7391L5.82785 14.7387L5.82664 14.6387ZM5.54414 14.4212L5.48086 14.4986L5.48093 14.4987L5.54414 14.4212ZM4.95258 13.8743L4.85803 13.9069L4.86518 13.9276L4.88034 13.9434L4.95258 13.8743ZM4.36406 13.1712L4.28319 13.23L4.29613 13.2478L4.31535 13.2585L4.36406 13.1712ZM3.85086 12.3509L3.75129 12.3601L3.75314 12.3801L3.76259 12.3979L3.85086 12.3509ZM3.84148 12.2734L3.74236 12.2867L3.74255 12.288L3.84148 12.2734ZM3.46914 11.5039L3.37545 11.5389L3.38273 11.5584L3.39721 11.5734L3.46914 11.5039ZM3.13531 10.2773L3.0924 10.187L3.02361 10.2197L3.03683 10.2947L3.13531 10.2773ZM3.23086 10.2178L3.1729 10.1361L3.16869 10.1395L3.23086 10.2178ZM3.25078 10.1955L3.16543 10.1431L3.16315 10.1473L3.25078 10.1955ZM3.25859 10.1762L3.35613 10.1983L3.35617 10.1982L3.25859 10.1762ZM3.27359 10.0063L3.17343 10.0048L3.17369 10.0108L3.27359 10.0063ZM3.03328 9.2407L2.9333 9.24286L2.93397 9.27388L2.95208 9.29907L3.03328 9.2407ZM3.03328 9.24047L2.9333 9.24258L2.9333 9.24263L3.03328 9.24047ZM3.03125 9.09641L2.93125 9.09631V9.09641H3.03125ZM3.11203 8.03664L3.09297 7.93847L3.02379 7.95191L3.01317 8.02158L3.11203 8.03664ZM3.22492 8.00031L3.18621 7.90805L3.18315 7.90945L3.22492 8.00031ZM3.24523 7.98648L3.17781 7.91239L3.17363 7.91668L3.24523 7.98648ZM3.25961 7.96711L3.16996 7.92278L3.16931 7.92415L3.25961 7.96711ZM3.31141 7.81461L3.21433 7.79003L3.21331 7.79516L3.31141 7.81461ZM8.70555 9.16234L8.80411 9.17925L8.80828 9.15492L8.80065 9.13144L8.70555 9.16234ZM8.41266 10.8695L8.3141 10.8526L8.27983 11.0523L8.45919 10.958L8.41266 10.8695ZM8.67016 9.05344L8.76526 9.02253L8.75763 8.99906L8.73996 8.98183L8.67016 9.05344ZM7.42969 7.84422L7.41531 7.74526L7.21479 7.77439L7.35988 7.91583L7.42969 7.84422ZM9.14391 7.59516L9.15828 7.69412L9.18269 7.69057L9.20265 7.67608L9.14391 7.59516ZM9.23656 7.52789L9.29531 7.60881L9.3153 7.5943L9.32623 7.57215L9.23656 7.52789ZM10.0032 5.97461L10.0929 5.93035L10.0032 5.74866L9.91353 5.93035L10.0032 5.97461ZM10.7698 7.52789L10.6801 7.57215L10.691 7.5943L10.711 7.60882L10.7698 7.52789ZM10.8624 7.59516L10.8037 7.67608L10.8236 7.69057L10.848 7.69412L10.8624 7.59516ZM12.5766 7.84422L12.6464 7.91582L12.7915 7.77439L12.591 7.74526L12.5766 7.84422ZM11.3363 9.05344L11.2664 8.98183L11.2488 8.99904L11.2412 9.02247L11.3363 9.05344ZM11.3008 9.16234L11.2057 9.13138L11.198 9.15488L11.2022 9.17925L11.3008 9.16234ZM11.5937 10.8695L11.5471 10.958L11.7265 11.0523L11.6922 10.8526L11.5937 10.8695ZM10.0605 10.0635L10.107 9.975L10.0852 9.96352H10.0605V10.0635ZM9.94586 10.0635V9.96352H9.92118L9.89933 9.975L9.94586 10.0635ZM11.7687 16.0814L11.7903 16.179L11.7916 16.1787L11.7687 16.0814ZM11.7826 16.0781L11.8456 16.0005L11.8075 15.9695L11.7596 15.9808L11.7826 16.0781ZM10.8828 16.239L10.8682 16.1401L10.8495 16.3333L10.8828 16.239ZM11.8764 17.3498L11.7783 17.3694L11.7785 17.3703L11.8764 17.3498ZM11.9994 17.5315L11.944 17.6147V17.6147L11.9994 17.5315ZM12.2145 17.5749L12.2332 17.6732L12.2341 17.673L12.2145 17.5749ZM12.3969 17.4526L12.3137 17.3972V17.3972L12.3969 17.4526ZM12.4395 17.2372L12.3415 17.2568L12.3415 17.2568L12.4395 17.2372ZM13.1202 15.269L13.1636 15.3591L13.191 15.3459L13.2064 15.3197L13.1202 15.269ZM13.8936 14.6725L13.8696 14.5753L13.8665 14.5762L13.8936 14.6725ZM11.6961 15.7632L11.7177 15.8609L11.7179 15.8608L11.6961 15.7632ZM10.5135 15.9624L10.4995 15.8634L10.4991 15.8634L10.5135 15.9624ZM10.5133 15.9624L10.5272 16.0614L10.5276 16.0614L10.5133 15.9624ZM8.12369 17.3519L8.02563 17.3323L8.0255 17.3329L8.12369 17.3519ZM8.08112 17.456L8.16447 17.5113L8.16447 17.5113L8.08112 17.456ZM8.00181 17.5358L8.05755 17.6188L8.05755 17.6188L8.00181 17.5358ZM7.89795 17.579L7.91751 17.677L7.91751 17.677L7.89795 17.579ZM7.60238 17.4559L7.68577 17.4007L7.68577 17.4007L7.60238 17.4559ZM7.56064 17.2393L7.65857 17.2595L7.6587 17.2589L7.56064 17.2393ZM10.4348 15.3935L10.4208 15.2945L10.4208 15.2945L10.4348 15.3935ZM10.4369 15.3932L10.4508 15.4923L10.4509 15.4923L10.4369 15.3932ZM11.5718 15.2025L11.5935 15.3002L11.5936 15.3001L11.5718 15.2025ZM11.8999 15.1196L11.9442 15.03L11.9097 15.013L11.8727 15.0234L11.8999 15.1196ZM12.2124 15.23L12.1906 15.3275L12.1999 15.3296L12.2095 15.3299L12.2124 15.23ZM12.2421 15.2308L12.2392 15.3308L12.2484 15.331L12.2575 15.3296L12.2421 15.2308ZM12.2783 15.2252L12.2937 15.324L12.3027 15.3226L12.3113 15.3196L12.2783 15.2252ZM12.3067 15.2153L12.3397 15.3097L12.3489 15.3064L12.3574 15.3014L12.3067 15.2153ZM12.7442 14.8111L12.7029 14.72L12.678 14.7313L12.6623 14.7537L12.7442 14.8111ZM14.0826 13.984L14.0931 13.8846L14.0518 13.8802L14.0195 13.9064L14.0826 13.984ZM14.1985 13.9918L14.1969 14.0918L14.2061 14.092L14.2153 14.0904L14.1985 13.9918ZM14.228 13.9868L14.2447 14.0854L14.2537 14.0839L14.2622 14.0808L14.228 13.9868ZM14.2608 13.9749L14.295 14.0688L14.3036 14.0657L14.3115 14.0611L14.2608 13.9749ZM14.2866 13.9597L14.3373 14.0459L14.3456 14.041L14.3529 14.0346L14.2866 13.9597ZM14.6335 13.4753L14.561 13.4064L14.5483 13.4197L14.5412 13.4367L14.6335 13.4753ZM16.392 9.09816L16.492 9.09845V9.09806L16.392 9.09816ZM16.2387 7.69659L16.1398 7.68181L16.1371 7.70008L16.141 7.71812L16.2387 7.69659ZM16.2115 7.27771L16.3077 7.25028L16.3077 7.25028L16.2115 7.27771ZM16.0136 6.90753L15.9193 6.94083L15.9255 6.95822L15.9374 6.97227L16.0136 6.90753ZM15.5956 5.96331L15.5024 5.9272L15.4857 5.97017L15.5076 6.01073L15.5956 5.96331ZM15.662 5.52761L15.6098 5.44228L15.5581 5.47388L15.5622 5.53434L15.662 5.52761ZM15.6692 5.52254L15.6095 5.44236L15.6094 5.44238L15.6692 5.52254ZM15.6784 5.51636L15.7263 5.6041L15.7269 5.60378L15.6784 5.51636ZM15.7853 5.48222L15.7964 5.58161L15.7964 5.58161L15.7853 5.48222ZM15.8971 5.49199L15.9254 5.39605L15.9253 5.39602L15.8971 5.49199ZM16.0249 5.57089L16.1248 5.57338L16.1258 5.53257L16.098 5.50271L16.0249 5.57089ZM16.0553 5.87863L16.1538 5.86101L16.1528 5.85663L16.0553 5.87863ZM16.1015 6.02183L16.0114 6.06514L16.0117 6.06579L16.1015 6.02183ZM16.1124 6.03745L16.1879 5.97166L16.1845 5.96811L16.1124 6.03745ZM16.1347 6.05378L16.177 5.96312L16.1747 5.96214L16.1347 6.05378ZM16.2801 6.09972L16.2999 6.00167L16.2976 6.00126L16.2801 6.09972ZM16.2969 6.10312L16.2771 6.20115L16.2776 6.20124L16.2969 6.10312ZM16.3078 6.10527L16.3987 6.06357L16.3774 6.01704L16.3271 6.00715L16.3078 6.10527ZM16.6978 7.16652L16.7938 7.19448L16.8018 7.16699L16.7941 7.13944L16.6978 7.16652ZM16.6863 7.81636L16.7846 7.79689L16.7833 7.79181L16.6863 7.81636ZM16.7381 7.96886L16.8283 7.92563L16.8278 7.92454L16.7381 7.96886ZM16.7525 7.98824L16.824 7.91806L16.82 7.91447L16.7525 7.98824ZM16.7729 8.00206L16.8147 7.91115L16.8116 7.90986L16.7729 8.00206ZM16.8858 8.03839L16.9847 8.02333L16.974 7.95366L16.9049 7.94023L16.8858 8.03839ZM16.9666 9.09816H17.0666V9.09806L16.9666 9.09816ZM16.9645 9.24245L17.0457 9.30083L17.0639 9.27561L17.0645 9.24457L16.9645 9.24245ZM16.7242 10.0065L16.8243 10.0106L16.8242 10.0051L16.7242 10.0065ZM16.7382 10.1739L16.8368 10.1566L16.8361 10.1533L16.7382 10.1739ZM16.7487 10.1999L16.8344 10.1481L16.8317 10.144L16.7487 10.1999ZM16.7669 10.2195L16.8292 10.1411L16.8248 10.138L16.7669 10.2195ZM16.8625 10.2791L16.961 10.2964L16.9742 10.2214L16.9054 10.1888L16.8625 10.2791ZM16.5287 11.5057L16.6006 11.5751L16.6151 11.5601L16.6224 11.5406L16.5287 11.5057ZM16.1561 12.2771L16.2551 12.2915L16.2552 12.2902L16.1561 12.2771ZM16.147 12.3525L16.2352 12.3995L16.2446 12.3819L16.2465 12.3621L16.147 12.3525ZM15.6337 13.1728L15.6824 13.2601L15.7016 13.2494L15.7146 13.2316L15.6337 13.1728ZM15.0452 13.8759L15.1174 13.945L15.1326 13.9292L15.1397 13.9085L15.0452 13.8759ZM14.4535 14.4228L14.5166 14.5004L14.5168 14.5002L14.4535 14.4228ZM14.171 14.6403L14.1698 14.7403L14.2031 14.7407L14.23 14.7211L14.171 14.6403ZM3.76492 5.91766L3.79552 6.01286L3.84438 5.99716L3.86011 5.9483L3.76492 5.91766ZM2.94891 5.80008L3.01221 5.72266L3.01219 5.72265L2.94891 5.80008ZM3.64734 5.10156L3.72476 5.03827L3.72475 5.03826L3.64734 5.10156ZM2.46875 4.64062L2.48331 4.54169L2.35172 4.52233L2.36966 4.65412L2.46875 4.64062ZM3.79394 5.90625L3.86465 5.97696L3.75325 5.8149L3.79394 5.90625ZM3.78906 5.90875L3.73863 5.8224L3.82497 6.00208L3.78906 5.90875ZM3.79113 5.90906L3.70051 5.95135L3.76088 6.08073L3.86184 5.97977L3.79113 5.90906ZM3.79069 5.90812L3.88131 5.86584L3.84185 5.7813L3.75478 5.81479L3.79069 5.90812ZM4.50824 5.49191L4.6072 5.50629V5.50629L4.50824 5.49191ZM4.68269 5.1L4.75961 5.16391L4.76011 5.1633L4.68269 5.1ZM4.56387 5.91727L4.47194 5.95662L4.4877 5.99345L4.52453 6.0092L4.56387 5.91727ZM4.98922 5.97286L4.97483 5.8739L4.98922 5.97286ZM5.38113 5.79844L5.31781 5.72104L5.31724 5.72151L5.38113 5.79844ZM5.86113 4.60352L5.9598 4.61976L5.98296 4.47915L5.84285 4.5052L5.86113 4.60352ZM2.24383 7.71805L2.30865 7.6419H2.30865L2.24383 7.71805ZM3.12711 7.8625L3.15525 7.95846L3.20513 7.94383L3.22182 7.8946L3.12711 7.8625ZM1.75 6.44922L1.76624 6.35055L1.63571 6.32907L1.65064 6.4605L1.75 6.44922ZM3.01891 6.97398L3.09762 6.9123L3.0976 6.91228L3.01891 6.97398ZM3.14844 7.85595L3.10325 7.76674L3.18116 7.95045L3.14844 7.85595ZM3.15325 7.85352L3.22316 7.92502L3.10806 7.76431L3.15325 7.85352ZM3.15006 7.85539L3.24198 7.816L3.2053 7.73043L3.11734 7.7609L3.15006 7.85539ZM3.15044 7.85627L3.05852 7.89566L3.11601 8.02978L3.22035 7.92777L3.15044 7.85627ZM4.86711 7.77266L4.80541 7.69395L4.80481 7.69443L4.86711 7.77266ZM5.4132 6.48633L5.51155 6.50442L5.53722 6.36484L5.39714 6.38763L5.4132 6.48633ZM4.43767 7.95294L4.42546 7.85369L4.43767 7.95294ZM3.97734 7.88219L3.88472 7.91988L3.8997 7.95671L3.93588 7.97319L3.97734 7.88219ZM3.92548 7.41932L3.82681 7.40306V7.40306L3.92548 7.41932ZM4.12312 6.99758L4.19875 7.063L4.19924 7.06243L4.12312 6.99758ZM3.10398 10.1061L3.15478 10.1923L3.19887 10.1663L3.20356 10.1153L3.10398 10.1061ZM2.13586 10.1837L2.09102 10.273L2.09105 10.273L2.13586 10.1837ZM2.76109 9.19756L2.69938 9.27624L2.69938 9.27624L2.76109 9.19756ZM1.28906 8.9742L1.28122 8.8745L1.1498 8.88484L1.19517 9.00862L1.28906 8.9742ZM3.12712 10.0936L3.05078 10.1582L3.13873 10.2622L3.2116 10.1471L3.12712 10.0936ZM3.1295 10.0898L3.21398 10.1434L3.06425 10.0141L3.1295 10.0898ZM3.12644 10.0928L3.20278 10.0282L3.14576 9.96079L3.07181 10.009L3.12644 10.0928ZM3.125 10.0937L3.05975 10.0179L3.17963 10.1775L3.125 10.0937ZM4.49419 9.86729L4.45879 9.77376L4.49419 9.86729ZM3.99075 9.91086L3.90995 9.96977L3.9332 10.0017L3.97195 10.0091L3.99075 9.91086ZM4.90029 9.56656L4.8216 9.50485L4.82115 9.50542L4.90029 9.56656ZM5.14146 8.07031L5.24127 8.06422L5.23266 7.92309L5.10246 7.97823L5.14146 8.07031ZM3.91419 8.94133L4.00324 8.98683L4.00358 8.98617L3.91419 8.94133ZM3.69477 12.4103L3.758 12.4877L3.79715 12.4558L3.79464 12.4053L3.69477 12.4103ZM3.18359 11.4896L3.13406 11.5765L3.13408 11.5765L3.18359 11.4896ZM2.66898 12.6481L2.70025 12.5532L2.70024 12.5532L2.66898 12.6481ZM1.57031 11.4851L1.54776 11.3877L1.41982 11.4173L1.48239 11.5327L1.57031 11.4851ZM3.71494 12.3906L3.80621 12.4315L3.6428 12.3214L3.71494 12.3906ZM3.71306 12.3948L3.64526 12.4683L3.74749 12.5626L3.80433 12.4357L3.71306 12.3948ZM3.71094 12.3953L3.63133 12.3347L3.77802 12.4694L3.71094 12.3953ZM3.71225 12.3941L3.78006 12.3206L3.71291 12.2586L3.64516 12.3199L3.71225 12.3941ZM4.58764 12.065L4.54295 12.1545L4.56205 12.164L4.58337 12.1649L4.58764 12.065ZM5.1203 11.9388L5.16896 12.0261H5.16896L5.1203 11.9388ZM4.58639 12.0644L4.51521 12.1346L4.52686 12.1464L4.5417 12.1538L4.58639 12.0644ZM4.34952 11.0377L4.44428 11.0697L4.4445 11.069L4.34952 11.0377ZM5.5278 9.91016L5.6256 9.88927L5.5962 9.75164L5.4759 9.82468L5.5278 9.91016ZM5.50811 11.5524L5.42124 11.5029L5.42093 11.5034L5.50811 11.5524ZM2.51562 13.4183L2.48623 13.3228L2.36121 13.3612L2.43109 13.4718L2.51562 13.4183ZM4.25875 13.3016L4.30218 13.2115L4.30213 13.2115L4.25875 13.3016ZM3.78836 14.5942L3.76372 14.6911L3.76378 14.6911L3.78836 14.5942ZM4.87914 14.2594L4.94799 14.332L4.98408 14.2977L4.97851 14.2482L4.87914 14.2594ZM4.90063 14.2409L4.83514 14.3165L4.94432 14.4111L4.99442 14.2756L4.90063 14.2409ZM4.90231 14.2363L4.99611 14.271L4.82613 14.1715L4.90231 14.2363ZM4.89969 14.2401L4.96517 14.1645L4.8914 14.1006L4.82571 14.1728L4.89969 14.2401ZM4.89844 14.2415L4.81536 14.1858L4.97241 14.3087L4.89844 14.2415ZM5.80935 13.8272L5.77649 13.9216L5.79362 13.9276L5.81175 13.9272L5.80935 13.8272ZM5.80576 13.8259L5.73964 13.901L5.75436 13.9139L5.7729 13.9204L5.80576 13.8259ZM6.3755 13.6519L6.43001 13.7358L6.3755 13.6519ZM6.76544 13.2056L6.67536 13.1622L6.67505 13.1629L6.76544 13.2056ZM6.66287 11.4297L6.75898 11.4021L6.7202 11.2671L6.60532 11.3479L6.66287 11.4297ZM5.47294 12.7352L5.56968 12.7606L5.56986 12.7599L5.47294 12.7352ZM5.48482 13.3277L5.38917 13.3569L5.48482 13.3277ZM6.91506 15.6741L6.96408 15.5869L6.88328 15.5415L6.83185 15.6186L6.91506 15.6741ZM6.91606 15.6747L6.86704 15.7618L6.99241 15.8323L7.01484 15.6903L6.91606 15.6747ZM6.91406 15.6756L6.82281 15.6347L6.99727 15.7311L6.91406 15.6756ZM6.91681 15.6699L7.01559 15.6855L6.82913 15.6218L6.91681 15.6699ZM4.28906 15.3056L4.2417 15.2175L4.12675 15.2794L4.21635 15.3743L4.28906 15.3056ZM6.06656 14.8305L6.04126 14.9273L6.04131 14.9273L6.06656 14.8305ZM5.84234 16.2634L5.83682 16.3633L5.83705 16.3633L5.84234 16.2634ZM6.90172 15.6952L6.9835 15.7528L7.01186 15.7125L6.99718 15.6654L6.90172 15.6952ZM7.76293 15.0636L7.71255 15.15L7.72881 15.1595L7.7474 15.1624L7.76293 15.0636ZM7.76839 15.0645L7.75287 15.1632L7.77152 15.1662L7.78995 15.1621L7.76839 15.0645ZM7.33004 14.6141L7.24182 14.6612H7.24182L7.33004 14.6141ZM7.19753 14.0043L7.29734 14.0105L7.29738 14.0098L7.19753 14.0043ZM8.16324 12.4141L8.25218 12.3683L8.1881 12.2437L8.09108 12.3448L8.16324 12.4141ZM8.63035 14.2285L8.53358 14.2033L8.5334 14.204L8.63035 14.2285ZM8.31795 14.7688L8.38757 14.8405L8.31795 14.7688ZM15.75 4.62305L15.7535 4.52311L15.7318 4.72137L15.75 4.62305ZM15.7556 4.62361L15.7761 4.72148L15.7722 4.525L15.7556 4.62361ZM15.7517 4.62336H15.8517V4.54018L15.7699 4.52503L15.7517 4.62336ZM15.7517 4.62442H15.6517V4.74757L15.7722 4.72229L15.7517 4.62442ZM15.7273 4.6175L15.7002 4.71374L15.7502 4.72785L15.7904 4.69506L15.7273 4.6175ZM16.1018 3.82258L16.0023 3.83287L16.0023 3.83288L16.1018 3.82258ZM15.069 4.03547L15.1645 4.00562L15.1645 4.00557L15.069 4.03547ZM15.3503 2.7168L15.4159 2.64135L15.316 2.55443L15.2598 2.67433L15.3503 2.7168ZM17.533 4.64062L17.6321 4.65413L17.6501 4.52245L17.5186 4.54168L17.533 4.64062ZM17.0529 5.79977L16.9896 5.72232L16.9896 5.72235L17.0529 5.79977ZM16.3545 5.10156L16.4319 5.16486L16.4319 5.16484L16.3545 5.10156ZM16.2369 5.91766L16.1417 5.94836L16.1575 5.99729L16.2065 6.01292L16.2369 5.91766ZM16.2446 5.94389L16.1739 6.0146L16.3333 5.89767L16.2446 5.94389ZM16.2423 5.93945L16.331 5.89324L16.1485 5.97417L16.2423 5.93945ZM16.2422 5.94145L16.2037 5.84915L16.0659 5.90658L16.1715 6.01216L16.2422 5.94145ZM16.2429 5.94114L16.2814 6.03345L16.3701 5.99651L16.3367 5.90643L16.2429 5.94114ZM15.0124 5.9728L15.0268 5.87384L15.0124 5.9728ZM14.6205 5.79836L14.6844 5.72144L14.6838 5.72094L14.6205 5.79836ZM15.4377 5.91719L15.4771 6.00912L15.5139 5.99336L15.5297 5.95655L15.4377 5.91719ZM15.4934 5.49184L15.5924 5.47746V5.47746L15.4934 5.49184ZM15.319 5.09992L15.2416 5.16325L15.2421 5.16382L15.319 5.09992ZM14.1406 4.60352L14.1588 4.50519L14.0188 4.47924L14.042 4.61976L14.1406 4.60352ZM16.8858 7.88958L16.8174 7.96259L16.9735 7.84169L16.8858 7.88958ZM16.8831 7.88477L16.9709 7.83688L16.7898 7.92065L16.8831 7.88477ZM16.8828 7.88683L16.8405 7.79622L16.7065 7.85879L16.8145 7.95984L16.8828 7.88683ZM16.8837 7.88639L16.9261 7.977L17.0105 7.93755L16.9771 7.85051L16.8837 7.88639ZM16.8725 7.8625L16.7778 7.89458L16.7944 7.94379L16.8443 7.95844L16.8725 7.8625ZM16.9807 6.97398L17.0594 7.03569L17.0594 7.03568L16.9807 6.97398ZM17.7558 7.71805L17.6909 7.64192L17.6909 7.64193L17.7558 7.71805ZM18.2496 6.44922L18.349 6.46055L18.364 6.32899L18.2333 6.35055L18.2496 6.44922ZM14.5859 6.48633L14.6019 6.38762L14.4619 6.36492L14.4876 6.50442L14.5859 6.48633ZM15.132 7.77273L15.1943 7.69451L15.1937 7.69404L15.132 7.77273ZM15.876 6.9975L15.7999 7.06238L15.8004 7.06292L15.876 6.9975ZM16.0737 7.41925L16.1723 7.40299V7.40299L16.0737 7.41925ZM16.0218 7.88211L16.0633 7.97309L16.0994 7.9566L16.1144 7.9198L16.0218 7.88211ZM17.8631 10.1835L17.8182 10.0942L17.8182 10.0942L17.8631 10.1835ZM16.895 10.1061L16.7954 10.1153L16.8001 10.1663L16.8443 10.1923L16.895 10.1061ZM18.7099 8.97416L18.8037 9.00859L18.8491 8.88477L18.7177 8.87447L18.7099 8.97416ZM17.2378 9.19752L17.1761 9.11883L17.1761 9.11883L17.2378 9.19752ZM16.9009 10.1343L16.8182 10.1904L16.9973 10.1074L16.9009 10.1343ZM16.8994 10.1289L16.9958 10.102L16.7994 10.1289H16.8994ZM16.8984 10.1306V10.0306H16.7098L16.8157 10.1867L16.8984 10.1306ZM16.8994 10.1306V10.2306H16.9994V10.1306H16.8994ZM16.0119 9.91086L16.0307 10.0091L16.0694 10.0016L16.0927 9.96977L16.0119 9.91086ZM16.0884 8.94133L15.999 8.98617L15.9994 8.98683L16.0884 8.94133ZM14.8612 8.07031L14.9002 7.97823L14.7699 7.92306L14.7613 8.06427L14.8612 8.07031ZM15.1023 9.56656L15.1815 9.50543L15.181 9.50485L15.1023 9.56656ZM15.5084 9.86731L15.5438 9.77379H15.5438L15.5084 9.86731ZM16.8159 11.4898L16.8654 11.5767L16.8655 11.5767L16.8159 11.4898ZM16.3047 12.4104L16.2048 12.4055L16.2023 12.4559L16.2414 12.4879L16.3047 12.4104ZM18.4291 11.4852L18.5171 11.5329L18.5796 11.4174L18.4517 11.3878L18.4291 11.4852ZM17.3305 12.6483L17.2992 12.5533L17.2992 12.5533L17.3305 12.6483ZM16.3059 12.4336L16.4047 12.4181L16.2059 12.4336H16.3059ZM16.3066 12.4398L16.215 12.4799L16.4066 12.4398H16.3066ZM16.3059 12.4354V12.5354H16.4059V12.4354H16.3059ZM16.3047 12.4354V12.3354H16.1519L16.213 12.4754L16.3047 12.4354ZM14.472 9.91016L14.5239 9.82468L14.4034 9.75154L14.3741 9.88939L14.472 9.91016ZM14.4917 11.5524L14.5789 11.5035L14.5785 11.5029L14.4917 11.5524ZM15.6502 11.0378L15.5553 11.0691L15.5555 11.0698L15.6502 11.0378ZM15.6772 11.5847L15.5797 11.5622V11.5622L15.6772 11.5847ZM15.4134 12.0645L15.4534 12.1561L15.471 12.1484L15.4846 12.1347L15.4134 12.0645ZM15.4121 12.065L15.4165 12.1649L15.4351 12.1641L15.4521 12.1567L15.4121 12.065ZM14.8793 11.939L14.8307 12.0264L14.8793 11.939ZM15.1188 14.2875L15.0248 14.3215L15.2188 14.2861L15.1188 14.2875ZM15.1172 14.283L15.1271 14.1835L14.9692 14.1677L15.0231 14.317L15.1172 14.283ZM15.1188 14.2844L15.2192 14.283L15.2182 14.2738L15.1188 14.2844ZM15.1184 14.2812L15.2179 14.2707L15.0184 14.2812H15.1184ZM15.1184 14.2831L15.1085 14.3826L15.2184 14.3936V14.2831H15.1184ZM15.7376 13.3016L15.6942 13.2115H15.6942L15.7376 13.3016ZM15.1172 14.2593L15.0178 14.2481L15.0122 14.2976L15.0483 14.3319L15.1172 14.2593ZM17.4807 13.4184L17.5652 13.4718L17.6351 13.3613L17.5101 13.3228L17.4807 13.4184ZM16.208 14.5942L16.2326 14.6911L16.2326 14.6911L16.208 14.5942ZM14.191 13.8262L14.2239 13.9206L14.2424 13.9142L14.2571 13.9012L14.191 13.8262ZM14.1874 13.8274L14.185 13.9274L14.2031 13.9278L14.2203 13.9219L14.1874 13.8274ZM14.5122 13.3279L14.4166 13.2987L14.5122 13.3279ZM14.5242 12.7352L14.4272 12.7599L14.4274 12.7606L14.5242 12.7352ZM13.3342 11.4297L13.3918 11.3479L13.2769 11.2671L13.2381 11.4021L13.3342 11.4297ZM13.2317 13.2056L13.3221 13.1629L13.3218 13.1622L13.2317 13.2056ZM13.6215 13.652L13.5669 13.7358L13.6215 13.652ZM13.9367 14.8304L13.9115 14.7336L13.9115 14.7336L13.9367 14.8304ZM13.1016 15.695L13.0061 15.6651L12.9914 15.7122L13.0198 15.7526L13.1016 15.695ZM15.7142 15.3054L15.7869 15.374L15.8766 15.279L15.7615 15.2173L15.7142 15.3054ZM14.1609 16.2632L14.1662 16.363L14.1665 16.363L14.1609 16.2632ZM13.0945 15.723L12.9957 15.7382L13.1927 15.7421L13.0945 15.723ZM13.0938 15.7182L13.1283 15.6243L12.9691 15.5656L12.9949 15.7334L13.0938 15.7182ZM13.0954 15.7168L13.195 15.7255L12.9982 15.6934L13.0954 15.7168ZM13.0949 15.7186L13.0603 15.8124L13.1658 15.8513L13.1922 15.742L13.0949 15.7186ZM11.3717 14.2303L11.4686 14.2058L11.4684 14.2051L11.3717 14.2303ZM11.6841 14.7705L11.6145 14.8423H11.6145L11.6841 14.7705ZM11.8389 12.416L11.911 12.3468L11.814 12.2457L11.7499 12.3703L11.8389 12.416ZM12.8045 14.0063L12.7046 14.0117L12.7047 14.0125L12.8045 14.0063ZM12.6719 14.6159L12.5837 14.5688H12.5837L12.6719 14.6159ZM12.2392 15.0654L12.2545 15.1642L12.2732 15.1613L12.2896 15.1518L12.2392 15.0654ZM12.2336 15.0662L12.2121 15.1639L12.2304 15.1679L12.2489 15.1651L12.2336 15.0662ZM4.29639 4.71369C4.356 4.69674 4.49969 4.64913 4.64675 4.55024C4.79416 4.45112 4.9504 4.29664 5.02277 4.06533L4.83189 4.00561C4.77723 4.18031 4.65819 4.30154 4.53515 4.38427C4.41177 4.46724 4.28983 4.50763 4.24171 4.52131L4.29639 4.71369ZM3.79513 3.8122C3.77016 4.05336 3.85257 4.25714 3.94876 4.40653C4.04472 4.55556 4.15786 4.65612 4.2061 4.6952L4.332 4.5398C4.29344 4.50856 4.19744 4.42331 4.11692 4.29825C4.03663 4.17356 3.9752 4.015 3.99407 3.8328L3.79513 3.8122ZM4.58044 2.64136C4.46999 2.73747 4.28855 2.90685 4.12806 3.11081C3.96958 3.31221 3.82123 3.56009 3.79513 3.8122L3.99407 3.8328C4.01421 3.63819 4.13356 3.42724 4.28523 3.23449C4.4349 3.04428 4.60608 2.88417 4.71173 2.79223L4.58044 2.64136ZM5.02276 4.06537C5.09384 3.83851 5.04423 3.54532 4.9724 3.29361C4.89904 3.03657 4.79545 2.79975 4.73662 2.67433L4.55555 2.75926C4.61226 2.88017 4.7109 3.10609 4.78008 3.3485C4.85078 3.59625 4.88403 3.83922 4.83191 4.00557L5.02276 4.06537ZM4.24031 4.72012L4.24512 4.72281L4.34263 4.54819L4.33782 4.5455L4.24031 4.72012ZM4.34925 4.55294L4.34788 4.55194L4.23025 4.71369L4.23162 4.71469L4.34925 4.55294ZM4.3721 4.69154L4.37266 4.69073L4.20821 4.5769L4.20765 4.57771L4.3721 4.69154ZM4.31524 4.53781L4.31124 4.53693L4.26851 4.73231L4.27251 4.73319L4.31524 4.53781ZM3.59903 6.06181C3.43946 6.40961 3.30726 6.76933 3.20366 7.13769L3.39619 7.19184C3.49698 6.83349 3.62558 6.48356 3.78081 6.14522L3.59903 6.06181ZM3.67625 6.00426L3.67024 6.00547L3.7096 6.20156L3.71562 6.20035L3.67625 6.00426ZM3.67425 6.00469L3.67424 6.00469L3.71763 6.19993L3.71763 6.19993L3.67425 6.00469ZM3.69308 6.00066C3.68908 6.00168 3.68425 6.00267 3.67639 6.00424L3.71549 6.20038C3.72232 6.19902 3.73242 6.19703 3.74239 6.19449L3.69308 6.00066ZM3.82088 5.961C3.78249 5.97889 3.74193 5.99171 3.70023 5.99912L3.73524 6.19603C3.79404 6.18558 3.85123 6.16751 3.90537 6.14228L3.82088 5.961ZM3.81001 5.9696C3.81361 5.96547 3.81809 5.96219 3.82311 5.96L3.90314 6.14328C3.92524 6.13363 3.94492 6.1192 3.96077 6.10103L3.81001 5.9696ZM3.80651 5.97573C3.80827 5.97213 3.81057 5.96884 3.81334 5.96597L3.95744 6.10466C3.96908 6.09257 3.97876 6.07873 3.98615 6.06365L3.80651 5.97573ZM3.84414 5.85889C3.83686 5.89959 3.8241 5.93911 3.80619 5.97638L3.98646 6.063C4.01221 6.00942 4.03056 5.95259 4.04102 5.89408L3.84414 5.85889ZM3.87292 5.57026C3.87541 5.66579 3.86604 5.76127 3.84503 5.85449L4.04013 5.89847C4.06478 5.78911 4.07577 5.67712 4.07286 5.56505L3.87292 5.57026ZM4.02846 5.40987C3.98028 5.4305 3.93678 5.46068 3.90058 5.49859L4.04521 5.63673C4.06276 5.61835 4.08385 5.60372 4.1072 5.59372L4.02846 5.40987ZM4.18092 5.37852C4.1285 5.37857 4.07664 5.38923 4.02846 5.40987L4.1072 5.59372C4.13056 5.58371 4.1557 5.57854 4.18111 5.57852L4.18092 5.37852ZM4.36732 5.42652C4.31027 5.39502 4.24617 5.3785 4.181 5.37852L4.18103 5.57852C4.21238 5.57851 4.24321 5.58645 4.27065 5.6016L4.36732 5.42652ZM4.38734 5.43971C4.38491 5.43794 4.37812 5.43286 4.36994 5.42802L4.26803 5.60011C4.26646 5.59918 4.2656 5.59846 4.26908 5.60101L4.38734 5.43971ZM4.39892 5.44965L4.39892 5.44965L4.2575 5.59107L4.2575 5.59107L4.39892 5.44965ZM4.38923 5.44112C4.38988 5.44154 4.39009 5.44173 4.38734 5.43972L4.26908 5.60101C4.27103 5.60244 4.27592 5.60606 4.28155 5.60966L4.38923 5.44112ZM4.49497 5.92498C4.44656 5.79997 4.42615 5.66587 4.43516 5.53212L4.23562 5.51866C4.22463 5.68158 4.2495 5.84493 4.30847 5.9972L4.49497 5.92498ZM4.07805 6.93868C4.19109 6.61847 4.32874 6.30748 4.48976 6.00851L4.31368 5.91367C4.14776 6.22173 4.00593 6.54216 3.88945 6.8721L4.07805 6.93868ZM3.88199 7.303C3.91689 7.18062 3.97758 7.06712 4.05997 6.97013L3.90753 6.84065C3.80668 6.95939 3.73239 7.09832 3.68966 7.24813L3.88199 7.303ZM3.85757 7.67966C3.83875 7.5538 3.84708 7.42537 3.88199 7.303L3.68966 7.24813C3.64692 7.39795 3.63673 7.55517 3.65977 7.70924L3.85757 7.67966ZM3.70531 9.09604C3.70579 8.63192 3.75642 8.16922 3.85633 7.71598L3.66102 7.67293C3.55801 8.14024 3.5058 8.61731 3.50531 9.09583L3.70531 9.09604ZM5.43632 13.4043C4.32951 12.2423 3.71004 10.7004 3.70531 9.09564L3.50531 9.09623C3.51019 10.7521 4.14941 12.3432 5.2915 13.5423L5.43632 13.4043ZM5.77701 13.8828C5.63773 13.7594 5.52805 13.6062 5.45613 13.4346L5.27168 13.5119C5.35521 13.7113 5.48261 13.8892 5.6444 14.0325L5.77701 13.8828ZM5.78716 13.8866L5.76138 13.8714L5.66003 14.0439L5.68581 14.059L5.78716 13.8866ZM5.80353 13.8908L5.77071 13.8789L5.70226 14.0668L5.73507 14.0787L5.80353 13.8908ZM5.81549 13.8912L5.78603 13.8862L5.75256 14.0834L5.78201 14.0884L5.81549 13.8912ZM5.90326 13.8826C5.85903 13.8877 5.82252 13.8898 5.79875 13.8898V14.0898C5.83217 14.0898 5.8766 14.087 5.92611 14.0813L5.90326 13.8826ZM7.29381 14.718C6.82199 14.5045 6.37966 14.231 5.97776 13.9044L5.85162 14.0596C6.26685 14.397 6.72386 14.6796 7.21134 14.9002L7.29381 14.718ZM7.74081 15.1271C7.58007 15.0325 7.44151 14.9045 7.33447 14.7517L7.17069 14.8665C7.29414 15.0427 7.45396 15.1903 7.63935 15.2995L7.74081 15.1271ZM7.75146 15.1288L7.72318 15.1189L7.65697 15.3076L7.68525 15.3176L7.75146 15.1288ZM7.7699 15.13L7.73373 15.1244L7.70299 15.322L7.73916 15.3276L7.7699 15.13ZM7.78141 15.128L7.75165 15.1289L7.75742 15.3288L7.78718 15.3279L7.78141 15.128ZM8.05257 15.028C7.96026 15.0735 7.86286 15.1079 7.76242 15.1304L7.80617 15.3255C7.92208 15.2996 8.03449 15.2599 8.14103 15.2073L8.05257 15.028ZM8.44655 15.1029C8.33842 15.079 8.23094 15.0518 8.12413 15.0215L8.06946 15.2138C8.18005 15.2453 8.29132 15.2734 8.4033 15.2982L8.44655 15.1029ZM9.07091 15.2182C8.86221 15.1855 8.65349 15.1485 8.44643 15.1029L8.40342 15.2982C8.61573 15.345 8.82872 15.3827 9.03988 15.4158L9.07091 15.2182ZM8.20071 15.808C8.47098 15.6299 8.76827 15.4968 9.08107 15.4137L9.02971 15.2204C8.69608 15.309 8.37897 15.451 8.09069 15.6409L8.20071 15.808ZM6.83425 15.3575C7.24641 15.5557 7.67777 15.7112 8.12157 15.8215L8.16983 15.6274C7.73926 15.5204 7.32078 15.3695 6.92091 15.1773L6.83425 15.3575ZM6.07707 14.7671C6.37739 14.8516 6.63337 15.049 6.79135 15.3181L6.96381 15.2168C6.77967 14.9032 6.48129 14.6731 6.13122 14.5746L6.07707 14.7671ZM5.82785 14.7387C5.91284 14.7377 5.99762 14.7475 6.08013 14.7679L6.12815 14.5738C6.02915 14.5493 5.92742 14.5375 5.82543 14.5388L5.82785 14.7387ZM5.48093 14.4987C5.57456 14.575 5.67021 14.6487 5.76787 14.7197L5.88541 14.5578C5.79078 14.4891 5.69809 14.4177 5.60735 14.3437L5.48093 14.4987ZM4.88034 13.9434C5.06903 14.1405 5.26958 14.3259 5.48086 14.4986L5.60742 14.3437C5.40244 14.1762 5.20787 13.9964 5.02481 13.8051L4.88034 13.9434ZM4.31535 13.2585C4.56988 13.4005 4.7631 13.6313 4.85803 13.9069L5.04712 13.8417C4.93616 13.5196 4.7103 13.2498 4.41277 13.0838L4.31535 13.2585ZM3.76259 12.3979C3.91655 12.687 4.09051 12.9651 4.28319 13.23L4.44493 13.1124C4.25772 12.855 4.08871 12.5848 3.93913 12.3039L3.76259 12.3979ZM3.74255 12.288C3.74674 12.3165 3.74934 12.3391 3.75129 12.3601L3.95043 12.3416C3.94816 12.3171 3.94514 12.291 3.94042 12.2589L3.74255 12.288ZM3.39721 11.5734C3.58542 11.7682 3.70637 12.0182 3.74237 12.2867L3.9406 12.2601C3.89893 11.9493 3.75893 11.66 3.54107 11.4344L3.39721 11.5734ZM3.03683 10.2947C3.11157 10.7189 3.22491 11.1353 3.37545 11.5389L3.56283 11.469C3.41656 11.0768 3.30642 10.6722 3.2338 10.26L3.03683 10.2947ZM3.16869 10.1395C3.14515 10.1582 3.11955 10.1741 3.0924 10.187L3.17823 10.3677C3.21908 10.3483 3.2576 10.3243 3.29303 10.2961L3.16869 10.1395ZM3.16315 10.1473C3.16556 10.1429 3.16892 10.1391 3.17299 10.1363L3.28873 10.2994C3.30928 10.2848 3.32627 10.2657 3.33841 10.2436L3.16315 10.1473ZM3.16105 10.1542C3.16193 10.1503 3.16344 10.1466 3.16553 10.1432L3.33604 10.2477C3.3454 10.2325 3.35219 10.2158 3.35613 10.1983L3.16105 10.1542ZM3.17369 10.0108C3.17585 10.059 3.17159 10.1073 3.16102 10.1543L3.35617 10.1982C3.37062 10.1338 3.37644 10.0678 3.37349 10.0019L3.17369 10.0108ZM2.95208 9.29907C3.09973 9.50447 3.17739 9.7519 3.17361 10.0048L3.37358 10.0078C3.37801 9.71199 3.28717 9.42257 3.11448 9.18233L2.95208 9.29907ZM2.9333 9.24263L2.9333 9.24286L3.13326 9.23854L3.13325 9.23831L2.9333 9.24263ZM2.93125 9.09641C2.93125 9.14568 2.93229 9.19471 2.9333 9.24258L3.13325 9.23836C3.13224 9.19014 3.13125 9.14322 3.13125 9.09641H2.93125ZM3.01317 8.02158C2.95899 8.37726 2.9316 8.73652 2.93125 9.09631L3.13125 9.0965C3.13159 8.74673 3.15821 8.39748 3.21089 8.0517L3.01317 8.02158ZM3.18315 7.90945C3.15436 7.92269 3.12408 7.93243 3.09297 7.93847L3.13109 8.13481C3.17787 8.12572 3.22339 8.11108 3.26669 8.09117L3.18315 7.90945ZM3.17363 7.91668C3.17721 7.913 3.1815 7.91009 3.18623 7.9081L3.26362 8.09252C3.2836 8.08414 3.3017 8.07181 3.31684 8.05629L3.17363 7.91668ZM3.16931 7.92415C3.1714 7.91975 3.17433 7.9158 3.17793 7.91252L3.31253 8.06045C3.32815 8.04624 3.34084 8.02913 3.34991 8.01007L3.16931 7.92415ZM3.21331 7.79516C3.20454 7.83943 3.18997 7.88234 3.16997 7.92279L3.34925 8.01143C3.37705 7.95521 3.3973 7.89557 3.4095 7.83405L3.21331 7.79516ZM3.20391 7.19272C3.26058 7.38734 3.26422 7.59356 3.21447 7.79006L3.40835 7.83916C3.46685 7.60811 3.46256 7.36564 3.39593 7.13681L3.20391 7.19272ZM8.60699 9.14543L8.3141 10.8526L8.51122 10.8864L8.80411 9.17925L8.60699 9.14543ZM8.57505 9.08434L8.61044 9.19325L8.80065 9.13144L8.76526 9.02253L8.57505 9.08434ZM7.35988 7.91583L8.60035 9.12505L8.73996 8.98183L7.49949 7.77261L7.35988 7.91583ZM9.12953 7.4962L7.41531 7.74526L7.44407 7.94318L9.15828 7.69412L9.12953 7.4962ZM9.17781 7.44697L9.08516 7.51423L9.20265 7.67608L9.29531 7.60881L9.17781 7.44697ZM9.91353 5.93035L9.14689 7.48363L9.32623 7.57215L10.0929 6.01887L9.91353 5.93035ZM10.8594 7.48364L10.0929 5.93035L9.91353 6.01886L10.6801 7.57215L10.8594 7.48364ZM10.9212 7.51423L10.8285 7.44697L10.711 7.60882L10.8037 7.67608L10.9212 7.51423ZM12.591 7.74526L10.8768 7.4962L10.848 7.69412L12.5623 7.94318L12.591 7.74526ZM11.4061 9.12504L12.6464 7.91582L12.5068 7.77261L11.2664 8.98183L11.4061 9.12504ZM11.3959 9.19331L11.4313 9.08441L11.2412 9.02247L11.2057 9.13138L11.3959 9.19331ZM11.6922 10.8526L11.3993 9.14543L11.2022 9.17925L11.4951 10.8864L11.6922 10.8526ZM10.0139 10.152L11.5471 10.958L11.6402 10.781L10.107 9.975L10.0139 10.152ZM9.94586 10.1635H10.0605V9.96352H9.94586V10.1635ZM8.45919 10.958L9.99239 10.152L9.89933 9.975L8.36612 10.781L8.45919 10.958ZM11.7916 16.1787L11.8055 16.1755L11.7596 15.9808L11.7457 15.9841L11.7916 16.1787ZM10.8974 16.3379C11.1868 16.2953 11.4848 16.2468 11.7903 16.179L11.747 15.9838C11.4484 16.05 11.1559 16.0977 10.8682 16.1401L10.8974 16.3379ZM11.9745 17.3302C11.9092 17.0039 11.7824 16.7539 11.5991 16.561C11.4166 16.3689 11.1839 16.2394 10.9162 16.1447L10.8495 16.3333C11.098 16.4212 11.2999 16.5364 11.4541 16.6987C11.6076 16.8603 11.7194 17.0743 11.7783 17.3694L11.9745 17.3302ZM12.0548 17.4482C12.0134 17.4206 11.9845 17.3779 11.9743 17.3292L11.7785 17.3703C11.7995 17.4703 11.8589 17.5581 11.944 17.6147L12.0548 17.4482ZM12.1957 17.4767C12.1468 17.486 12.0962 17.4758 12.0548 17.4482L11.944 17.6147C12.029 17.6713 12.1329 17.6923 12.2332 17.6731L12.1957 17.4767ZM12.3137 17.3972C12.2862 17.4385 12.2434 17.4671 12.1948 17.4769L12.2341 17.673C12.3347 17.6528 12.4232 17.5935 12.4801 17.5081L12.3137 17.3972ZM12.3415 17.2568C12.3512 17.3054 12.3412 17.3559 12.3137 17.3972L12.4801 17.5081C12.537 17.4227 12.5577 17.3182 12.5376 17.2176L12.3415 17.2568ZM11.7195 16.1558C12.0165 16.3969 12.2384 16.7405 12.3415 17.2568L12.5376 17.2176C12.4263 16.6597 12.1818 16.2735 11.8456 16.0005L11.7195 16.1558ZM13.2064 15.3197C13.3644 15.0506 13.6204 14.8532 13.9207 14.7687L13.8665 14.5762C13.5165 14.6746 13.2181 14.9048 13.0339 15.2184L13.2064 15.3197ZM11.7179 15.8608C12.2174 15.7495 12.7024 15.5811 13.1636 15.3591L13.0768 15.1789C12.6295 15.3943 12.1589 15.5576 11.6743 15.6656L11.7179 15.8608ZM10.5274 16.0614C10.9106 16.0074 11.3106 15.9511 11.7177 15.8609L11.6745 15.6656C11.2761 15.7538 10.8838 15.8092 10.4995 15.8634L10.5274 16.0614ZM10.5276 16.0614L10.5278 16.0613L10.4991 15.8634L10.4989 15.8634L10.5276 16.0614ZM8.22174 17.3715C8.27326 17.114 8.36489 16.9184 8.48874 16.7657C8.6127 16.613 8.77287 16.4983 8.96847 16.4084C9.36485 16.2261 9.89137 16.151 10.5272 16.0614L10.4993 15.8634C9.87367 15.9515 9.31376 16.0295 8.88491 16.2267C8.66788 16.3265 8.48073 16.4582 8.33343 16.6397C8.18602 16.8214 8.08246 17.0482 8.02563 17.3323L8.22174 17.3715ZM8.16447 17.5113C8.19267 17.4687 8.21218 17.421 8.22187 17.3709L8.0255 17.3329C8.02082 17.3572 8.01139 17.3802 7.99776 17.4008L8.16447 17.5113ZM8.05755 17.6188C8.09993 17.5904 8.13627 17.5538 8.16447 17.5113L7.99776 17.4008C7.98413 17.4213 7.96657 17.439 7.94608 17.4528L8.05755 17.6188ZM7.91751 17.677C7.96757 17.6671 8.01516 17.6473 8.05755 17.6188L7.94608 17.4528C7.92559 17.4665 7.90259 17.4761 7.87839 17.4809L7.91751 17.677ZM7.76585 17.677C7.8159 17.687 7.86744 17.687 7.91751 17.677L7.87839 17.4809C7.8542 17.4857 7.82928 17.4857 7.80509 17.4809L7.76585 17.677ZM7.62585 17.6187C7.66821 17.6472 7.71579 17.667 7.76585 17.677L7.80509 17.4809C7.78089 17.476 7.75789 17.4665 7.73742 17.4527L7.62585 17.6187ZM7.51899 17.5111C7.54716 17.5536 7.58348 17.5902 7.62585 17.6187L7.73742 17.4527C7.71694 17.4389 7.69939 17.4213 7.68577 17.4007L7.51899 17.5111ZM7.46168 17.3706C7.47134 17.4208 7.49081 17.4685 7.51899 17.5111L7.68577 17.4007C7.67215 17.3801 7.66274 17.357 7.65807 17.3328L7.46168 17.3706ZM7.46271 17.219C7.45237 17.269 7.45202 17.3205 7.46168 17.3706L7.65807 17.3328C7.6534 17.3086 7.65357 17.2837 7.65857 17.2595L7.46271 17.219ZM10.4208 15.2945C9.76151 15.3876 9.09976 15.48 8.56706 15.7412C8.02507 16.0069 7.61718 16.4466 7.46258 17.2196L7.6587 17.2589C7.80043 16.5501 8.16593 16.1606 8.6551 15.9208C9.15355 15.6764 9.7807 15.5869 10.4488 15.4926L10.4208 15.2945ZM10.423 15.2942L10.4208 15.2945L10.4487 15.4926L10.4508 15.4923L10.423 15.2942ZM11.5502 15.1049C11.1749 15.1881 10.7948 15.2418 10.4229 15.2942L10.4509 15.4923C10.8215 15.44 11.2093 15.3854 11.5935 15.3002L11.5502 15.1049ZM11.8727 15.0234C11.7659 15.0536 11.6583 15.0808 11.5501 15.1049L11.5936 15.3001C11.7055 15.2752 11.8167 15.2471 11.9272 15.2159L11.8727 15.0234ZM12.2343 15.1324C12.1339 15.1099 12.0365 15.0755 11.9442 15.03L11.8557 15.2093C11.9622 15.2619 12.0747 15.3016 12.1906 15.3275L12.2343 15.1324ZM12.245 15.1309L12.2153 15.13L12.2095 15.3299L12.2392 15.3308L12.245 15.1309ZM12.2629 15.1264L12.2268 15.132L12.2575 15.3296L12.2937 15.324L12.2629 15.1264ZM12.2736 15.1209L12.2453 15.1308L12.3113 15.3196L12.3397 15.3097L12.2736 15.1209ZM12.6623 14.7537C12.5552 14.9065 12.4166 15.0345 12.2559 15.1291L12.3574 15.3014C12.5428 15.1923 12.7026 15.0447 12.826 14.8685L12.6623 14.7537ZM14.0195 13.9064C13.6175 14.2331 13.175 14.5065 12.7029 14.72L12.7854 14.9022C13.273 14.6817 13.7302 14.3991 14.1457 14.0616L14.0195 13.9064ZM14.2002 13.8918C14.1751 13.8914 14.1379 13.8893 14.0931 13.8846L14.0721 14.0835C14.1216 14.0887 14.1648 14.0913 14.1969 14.0918L14.2002 13.8918ZM14.2112 13.8882L14.1818 13.8932L14.2153 14.0904L14.2447 14.0854L14.2112 13.8882ZM14.2266 13.8809L14.1938 13.8929L14.2622 14.0808L14.295 14.0688L14.2266 13.8809ZM14.2359 13.8735L14.2101 13.8887L14.3115 14.0611L14.3373 14.0459L14.2359 13.8735ZM14.5412 13.4367C14.4693 13.6083 14.3596 13.7615 14.2203 13.8849L14.3529 14.0346C14.5147 13.8913 14.6421 13.7133 14.7257 13.514L14.5412 13.4367ZM16.292 9.09786C16.2872 10.7025 15.6678 12.2444 14.561 13.4064L14.7059 13.5443C15.8479 12.3453 16.4871 10.7543 16.492 9.09845L16.292 9.09786ZM16.141 7.71812C16.2409 8.17138 16.2915 8.63411 16.292 9.09825L16.492 9.09806C16.4915 8.61951 16.4393 8.14241 16.3363 7.67507L16.141 7.71812ZM16.1154 7.30514C16.1503 7.42752 16.1586 7.55595 16.1398 7.68181L16.3376 7.71138C16.3606 7.55731 16.3504 7.40009 16.3077 7.25028L16.1154 7.30514ZM15.9374 6.97227C16.0198 7.06926 16.0805 7.18276 16.1154 7.30514L16.3077 7.25028C16.265 7.10046 16.1907 6.96153 16.0898 6.84279L15.9374 6.97227ZM15.5076 6.01073C15.6686 6.30969 15.8063 6.62065 15.9193 6.94083L16.1079 6.87424C15.9914 6.54433 15.8496 6.22393 15.6837 5.9159L15.5076 6.01073ZM15.5622 5.53434C15.5712 5.66809 15.5508 5.80219 15.5024 5.9272L15.6889 5.99943C15.7479 5.84715 15.7727 5.6838 15.7617 5.52088L15.5622 5.53434ZM15.6094 5.44238L15.6098 5.44228L15.7141 5.61294C15.7212 5.6086 15.7273 5.60401 15.729 5.6027L15.6094 5.44238ZM15.6304 5.42862C15.62 5.43432 15.6115 5.44086 15.6095 5.44236L15.729 5.60271C15.7307 5.60144 15.7308 5.60139 15.7306 5.60151C15.7303 5.60175 15.7287 5.6028 15.7263 5.6041L15.6304 5.42862ZM15.7742 5.38284C15.7235 5.38849 15.6744 5.40416 15.6298 5.42894L15.7269 5.60378C15.7484 5.59186 15.772 5.58433 15.7964 5.58161L15.7742 5.38284ZM15.9253 5.39602C15.8763 5.38167 15.8249 5.37719 15.7742 5.38284L15.7964 5.58161C15.8208 5.57889 15.8454 5.58105 15.869 5.58795L15.9253 5.39602ZM16.098 5.50271C16.0511 5.45233 15.9914 5.4155 15.9254 5.39605L15.8689 5.58792C15.9006 5.59724 15.9292 5.61491 15.9517 5.63908L16.098 5.50271ZM16.1528 5.85663C16.1318 5.76372 16.1225 5.66859 16.1248 5.57338L15.9249 5.5684C15.9221 5.68007 15.9331 5.79166 15.9577 5.90063L16.1528 5.85663ZM16.1916 5.97852C16.1737 5.94126 16.161 5.90173 16.1537 5.86103L15.9568 5.89622C15.9673 5.95474 15.9856 6.01156 16.0114 6.06514L16.1916 5.97852ZM16.1845 5.96811C16.1873 5.97098 16.1896 5.97428 16.1913 5.97787L16.0117 6.06579C16.0191 6.08087 16.0288 6.09471 16.0404 6.1068L16.1845 5.96811ZM16.1747 5.96214C16.1797 5.96433 16.1842 5.96761 16.1878 5.97174L16.0371 6.10317C16.0529 6.12134 16.0726 6.13578 16.0947 6.14543L16.1747 5.96214ZM16.2976 6.00126C16.2559 5.99385 16.2153 5.98104 16.1769 5.96314L16.0925 6.14442C16.1466 6.16965 16.2038 6.18772 16.2626 6.19818L16.2976 6.00126ZM16.3167 6.0051L16.2999 6.0017L16.2603 6.19774L16.2771 6.20114L16.3167 6.0051ZM16.3271 6.00715L16.3163 6.00501L16.2776 6.20124L16.2885 6.20338L16.3271 6.00715ZM16.7941 7.13944C16.6905 6.77108 16.5583 6.41136 16.3987 6.06357L16.2169 6.14697C16.3722 6.48531 16.5008 6.83525 16.6016 7.19359L16.7941 7.13944ZM16.7833 7.79181C16.7335 7.59531 16.7372 7.38909 16.7938 7.19448L16.6018 7.13856C16.5352 7.36739 16.5309 7.60987 16.5894 7.84091L16.7833 7.79181ZM16.8278 7.92454C16.8078 7.88409 16.7932 7.84118 16.7844 7.79692L16.5883 7.83581C16.6004 7.89732 16.6207 7.95696 16.6485 8.01318L16.8278 7.92454ZM16.82 7.91447C16.8235 7.91763 16.8263 7.92142 16.8283 7.92563L16.648 8.01209C16.657 8.03094 16.6696 8.04788 16.685 8.06201L16.82 7.91447ZM16.8116 7.90986C16.8162 7.91179 16.8204 7.91461 16.8239 7.91816L16.6812 8.05831C16.6963 8.07369 16.7143 8.08592 16.7342 8.09427L16.8116 7.90986ZM16.9049 7.94023C16.8737 7.93418 16.8435 7.92444 16.8147 7.9112L16.7311 8.09292C16.7744 8.11283 16.82 8.12748 16.8667 8.13656L16.9049 7.94023ZM17.0666 9.09806C17.0662 8.73827 17.0388 8.37902 16.9847 8.02333L16.7869 8.05345C16.8396 8.39923 16.8662 8.74848 16.8666 9.09825L17.0666 9.09806ZM17.0645 9.24457C17.0655 9.19669 17.0666 9.14751 17.0666 9.09816H16.8666C16.8666 9.14505 16.8656 9.19212 16.8646 9.24034L17.0645 9.24457ZM16.8242 10.0051C16.8207 9.7527 16.8984 9.50581 17.0457 9.30083L16.8833 9.18408C16.711 9.42385 16.6202 9.71263 16.6242 10.0079L16.8242 10.0051ZM16.8361 10.1533C16.8262 10.1064 16.8222 10.0584 16.8242 10.0105L16.6243 10.0025C16.6217 10.0669 16.6271 10.1313 16.6404 10.1944L16.8361 10.1533ZM16.8317 10.144C16.8342 10.1479 16.8359 10.1521 16.8367 10.1567L16.6397 10.1911C16.6437 10.2142 16.6526 10.2362 16.6657 10.2557L16.8317 10.144ZM16.8248 10.138C16.8286 10.1407 16.8319 10.1442 16.8343 10.1482L16.6631 10.2516C16.6748 10.271 16.6905 10.2879 16.709 10.301L16.8248 10.138ZM16.9054 10.1888C16.8783 10.1759 16.8526 10.1599 16.8291 10.1412L16.7047 10.2978C16.7401 10.326 16.7787 10.35 16.8196 10.3694L16.9054 10.1888ZM16.6224 11.5406C16.7729 11.1371 16.8863 10.7206 16.961 10.2964L16.764 10.2617C16.6914 10.6739 16.5813 11.0786 16.435 11.4707L16.6224 11.5406ZM16.2552 12.2902C16.2909 12.021 16.412 11.7704 16.6006 11.5751L16.4568 11.4362C16.2384 11.6622 16.0983 11.9524 16.057 12.2639L16.2552 12.2902ZM16.2465 12.3621C16.2485 12.3416 16.251 12.3191 16.2551 12.2915L16.0572 12.2626C16.0526 12.2939 16.0497 12.3196 16.0474 12.3429L16.2465 12.3621ZM15.7146 13.2316C15.9073 12.9667 16.0813 12.6886 16.2352 12.3995L16.0587 12.3055C15.9091 12.5864 15.7401 12.8565 15.5528 13.1139L15.7146 13.2316ZM15.1397 13.9085C15.2346 13.6329 15.4279 13.4021 15.6824 13.2601L15.585 13.0854C15.2874 13.2514 15.0616 13.5212 14.9506 13.8433L15.1397 13.9085ZM14.5168 14.5002C14.7281 14.3275 14.9287 14.1422 15.1174 13.945L14.9729 13.8067C14.7899 13.998 14.5953 14.1778 14.3903 14.3453L14.5168 14.5002ZM14.23 14.7211C14.3274 14.6501 14.4229 14.5765 14.5166 14.5004L14.3905 14.3451C14.2995 14.4191 14.2067 14.4905 14.1121 14.5596L14.23 14.7211ZM13.9176 14.7695C14.0001 14.7491 14.0849 14.7393 14.1698 14.7403L14.1722 14.5404C14.0703 14.5391 13.9686 14.5509 13.8696 14.5754L13.9176 14.7695ZM3.73432 5.82245C3.68884 5.83707 3.57411 5.86837 3.4365 5.86689C3.29949 5.86542 3.14555 5.8317 3.01221 5.72266L2.88561 5.87749C3.06421 6.02354 3.26699 6.06509 3.43436 6.06688C3.60112 6.06867 3.73843 6.03121 3.79552 6.01286L3.73432 5.82245ZM3.56992 5.16486C3.67901 5.29829 3.71275 5.45224 3.71421 5.58923C3.71569 5.72682 3.68438 5.84151 3.66973 5.88701L3.86011 5.9483C3.87851 5.89114 3.91599 5.75384 3.9142 5.58708C3.91241 5.41971 3.87083 5.21694 3.72476 5.03827L3.56992 5.16486ZM2.45419 4.73956C2.58108 4.75823 2.80891 4.79804 3.03352 4.86898C3.26337 4.94157 3.46807 5.0403 3.56993 5.16487L3.72475 5.03826C3.58295 4.86485 3.32764 4.75214 3.09376 4.67827C2.85464 4.60274 2.61501 4.56107 2.48331 4.54169L2.45419 4.73956ZM3.01219 5.72265C2.87188 5.60796 2.76856 5.40807 2.69555 5.19063C2.62356 4.97622 2.58588 4.75965 2.56784 4.62713L2.36966 4.65412C2.38858 4.79301 2.42839 5.02327 2.50595 5.25429C2.5825 5.48228 2.70077 5.72641 2.88562 5.8775L3.01219 5.72265ZM3.75325 5.8149C3.74824 5.81713 3.74336 5.81964 3.73863 5.8224L3.8395 5.9951C3.83792 5.99602 3.8363 5.99685 3.83463 5.9976L3.75325 5.8149ZM3.86184 5.97977L3.86465 5.97696L3.72323 5.83554L3.72041 5.83835L3.86184 5.97977ZM3.70007 5.95041L3.70051 5.95135L3.88174 5.86677L3.88131 5.86584L3.70007 5.95041ZM3.82497 6.00208L3.82659 6.00146L3.75478 5.81479L3.75316 5.81542L3.82497 6.00208ZM4.6072 5.50629C4.62551 5.38031 4.67826 5.26183 4.75961 5.1639L4.60578 5.0361C4.50089 5.16234 4.43289 5.31509 4.40928 5.47752L4.6072 5.50629ZM4.6558 5.87791C4.6057 5.76088 4.58888 5.63228 4.6072 5.50629L4.40928 5.47752C4.38566 5.63994 4.40734 5.80573 4.47194 5.95662L4.6558 5.87791ZM4.97483 5.8739C4.84885 5.89221 4.72025 5.87541 4.6032 5.82533L4.52453 6.0092C4.67542 6.07376 4.8412 6.09543 5.00361 6.07181L4.97483 5.8739ZM5.31724 5.72151C5.2193 5.80285 5.10082 5.85558 4.97483 5.8739L5.00361 6.07181C5.16602 6.0482 5.31877 5.98022 5.44502 5.87537L5.31724 5.72151ZM5.76246 4.58727C5.74078 4.7189 5.696 4.95123 5.62093 5.17912C5.5441 5.41233 5.44226 5.61922 5.31781 5.72104L5.44445 5.87583C5.61688 5.73476 5.73297 5.47822 5.81089 5.2417C5.89055 4.99987 5.93734 4.75617 5.9598 4.61976L5.76246 4.58727ZM4.76011 5.1633C4.86254 5.03801 5.06734 4.93352 5.29667 4.85331C5.52104 4.77482 5.74942 4.726 5.87941 4.70183L5.84285 4.5052C5.70816 4.53025 5.46864 4.58127 5.23063 4.66452C4.99758 4.74605 4.7455 4.86519 4.60528 5.0367L4.76011 5.1633ZM2.17901 7.79419C2.36679 7.95405 2.5851 8.00225 2.76573 8.00762C2.94595 8.01298 3.0953 7.97604 3.15525 7.95846L3.09897 7.76654C3.05049 7.78076 2.92338 7.81222 2.77167 7.80771C2.62037 7.80321 2.45126 7.7633 2.30865 7.6419L2.17901 7.79419ZM1.65064 6.4605C1.66736 6.60779 1.70454 6.85764 1.7829 7.11006C1.8603 7.35936 1.98257 7.62698 2.17901 7.79419L2.30865 7.6419C2.15633 7.51224 2.04806 7.28958 1.97391 7.05076C1.90074 6.81506 1.86537 6.57893 1.84936 6.43794L1.65064 6.4605ZM3.0976 6.91228C2.94827 6.72182 2.6736 6.59432 2.4208 6.50943C2.16273 6.42278 1.90449 6.3733 1.76624 6.35055L1.73376 6.54789C1.86707 6.56983 2.11352 6.61722 2.35713 6.69903C2.60601 6.7826 2.83001 6.89513 2.94021 7.03569L3.0976 6.91228ZM3.22182 7.8946C3.24191 7.83533 3.28499 7.6876 3.28702 7.50729C3.28907 7.32657 3.24979 7.10648 3.09762 6.9123L2.9402 7.03567C3.05576 7.18313 3.08875 7.35371 3.08704 7.50503C3.08532 7.65678 3.04864 7.78249 3.0324 7.8304L3.22182 7.8946ZM3.19362 7.94516L3.19844 7.94272L3.10806 7.76431L3.10325 7.76674L3.19362 7.94516ZM3.11734 7.7609L3.11571 7.76146L3.18116 7.95045L3.18279 7.94988L3.11734 7.7609ZM3.24235 7.81687L3.24198 7.816L3.05815 7.89479L3.05852 7.89566L3.24235 7.81687ZM3.08334 7.78201L3.08053 7.78476L3.22035 7.92777L3.22316 7.92502L3.08334 7.78201ZM4.9288 7.85136C5.11816 7.70293 5.24933 7.42687 5.33873 7.17123C5.43 6.91022 5.48522 6.64757 5.51155 6.50442L5.31485 6.46824C5.28938 6.60672 5.23636 6.85806 5.14994 7.10521C5.06164 7.35774 4.94567 7.58402 4.80542 7.69395L4.9288 7.85136ZM4.44989 8.05219C4.62524 8.03061 4.79119 7.96094 4.9294 7.85088L4.80481 7.69443C4.69547 7.7815 4.56418 7.83662 4.42546 7.85369L4.44989 8.05219ZM3.93588 7.97319C4.09665 8.04644 4.27455 8.07378 4.44989 8.05219L4.42546 7.85369C4.28673 7.87077 4.14599 7.84914 4.0188 7.79119L3.93588 7.97319ZM3.82681 7.40306C3.79808 7.57738 3.81812 7.75624 3.88472 7.91988L4.06996 7.84449C4.01728 7.71502 4.00142 7.5735 4.02415 7.43558L3.82681 7.40306ZM4.04749 6.93216C3.93191 7.06577 3.85554 7.22875 3.82681 7.40306L4.02415 7.43559C4.04688 7.29766 4.10731 7.16872 4.19875 7.063L4.04749 6.93216ZM5.39714 6.38763C5.25478 6.41078 4.9945 6.45996 4.73404 6.5445C4.47864 6.6274 4.20215 6.75064 4.047 6.93272L4.19924 7.06243C4.31542 6.92608 4.54397 6.81647 4.79578 6.73473C5.04252 6.65465 5.29162 6.60742 5.42926 6.58503L5.39714 6.38763ZM3.05319 10.02C3.00769 10.0468 2.88198 10.114 2.71973 10.1494C2.55792 10.1848 2.36628 10.1873 2.18067 10.0943L2.09105 10.273C2.32997 10.3928 2.57165 10.3865 2.7624 10.3448C2.95271 10.3033 3.0988 10.2253 3.15478 10.1923L3.05319 10.02ZM2.69938 9.27624C2.86278 9.40439 2.94223 9.57878 2.97927 9.74019C3.01641 9.90205 3.00924 10.0444 3.00441 10.097L3.20356 10.1153C3.20951 10.0507 3.21777 9.88533 3.17421 9.69547C3.13054 9.50516 3.03316 9.28385 2.82281 9.11887L2.69938 9.27624ZM1.29691 9.07389C1.43896 9.06271 1.71092 9.04829 1.99019 9.07102C2.27509 9.09422 2.54428 9.15459 2.69938 9.27624L2.82281 9.11887C2.61752 8.95786 2.29518 8.89519 2.00641 8.87168C1.71201 8.84772 1.42815 8.86295 1.28122 8.8745L1.29691 9.07389ZM2.1807 10.0943C1.98354 9.99536 1.81047 9.78553 1.67061 9.55195C1.53244 9.32121 1.43483 9.08128 1.38295 8.93978L1.19517 9.00862C1.24924 9.1561 1.35186 9.40894 1.49902 9.6547C1.64449 9.89763 1.84185 10.148 2.09102 10.273L2.1807 10.0943ZM3.2116 10.1471L3.21398 10.1434L3.04502 10.0363L3.04265 10.0401L3.2116 10.1471ZM3.05009 10.1574L3.05078 10.1582L3.20347 10.029L3.20278 10.0282L3.05009 10.1574ZM3.17963 10.1775L3.18106 10.1765L3.07181 10.009L3.07037 10.01L3.17963 10.1775ZM3.06425 10.0141L3.05975 10.0179L3.19025 10.1695L3.19475 10.1656L3.06425 10.0141ZM4.45879 9.77376C4.31552 9.828 4.16002 9.84146 4.00956 9.81264L3.97195 10.0091C4.15872 10.0448 4.35175 10.0281 4.52959 9.96081L4.45879 9.77376ZM4.82115 9.50542C4.72749 9.62664 4.60206 9.71953 4.45879 9.77376L4.52959 9.96081C4.70744 9.89349 4.86315 9.77818 4.97942 9.6277L4.82115 9.50542ZM5.04164 8.0764C5.05068 8.22449 5.06057 8.50295 5.0339 8.78718C5.00669 9.07715 4.94319 9.34983 4.8216 9.50485L4.97897 9.62828C5.13926 9.42392 5.20552 9.09894 5.23302 8.80587C5.26106 8.50705 5.2506 8.21708 5.24127 8.06422L5.04164 8.0764ZM4.00358 8.98617C4.0923 8.80929 4.30851 8.63301 4.55386 8.48172C4.79459 8.33327 5.04509 8.21972 5.18045 8.1624L5.10246 7.97823C4.96275 8.03739 4.70188 8.15548 4.44888 8.31148C4.2005 8.46465 3.94061 8.66563 3.82481 8.89649L4.00358 8.98617ZM3.91507 9.42905C3.90301 9.27633 3.93353 9.12325 4.00324 8.98683L3.82514 8.89583C3.73861 9.06518 3.70072 9.2552 3.71569 9.44479L3.91507 9.42905ZM4.07156 9.85194C3.9813 9.72816 3.92713 9.58177 3.91507 9.42905L3.71569 9.44479C3.73066 9.63438 3.79791 9.81611 3.90995 9.96977L4.07156 9.85194ZM3.79464 12.4053C3.79129 12.338 3.77516 12.1606 3.6993 11.9644C3.62325 11.7677 3.48466 11.5461 3.23311 11.4027L3.13408 11.5765C3.33354 11.6902 3.44749 11.8677 3.51276 12.0365C3.5782 12.2057 3.59214 12.3601 3.59489 12.4152L3.79464 12.4053ZM2.63772 12.7431C2.91291 12.8337 3.17026 12.788 3.36713 12.7125C3.56355 12.6372 3.70593 12.5302 3.758 12.4877L3.63153 12.3328C3.58875 12.3677 3.46497 12.4608 3.29556 12.5258C3.12662 12.5905 2.9185 12.625 2.70025 12.5532L2.63772 12.7431ZM1.48239 11.5327C1.56164 11.679 1.71067 11.9333 1.90691 12.1737C2.10103 12.4116 2.35186 12.6491 2.63773 12.7431L2.70024 12.5532C2.46994 12.4774 2.24916 12.2768 2.06186 12.0473C1.87668 11.8204 1.73446 11.5781 1.65823 11.4374L1.48239 11.5327ZM3.23313 11.4028C2.98849 11.2632 2.63271 11.2478 2.31882 11.2691C1.99921 11.2908 1.69846 11.3528 1.54776 11.3877L1.59287 11.5825C1.7388 11.5487 2.0279 11.4893 2.33237 11.4687C2.64256 11.4476 2.94511 11.4687 3.13406 11.5765L3.23313 11.4028ZM3.62367 12.3498L3.62179 12.3539L3.80433 12.4357L3.80621 12.4315L3.62367 12.3498ZM3.79054 12.4558C3.78889 12.4579 3.78756 12.4594 3.78707 12.4599L3.6428 12.3214C3.63932 12.325 3.63536 12.3294 3.63133 12.3347L3.79054 12.4558ZM3.64516 12.3199L3.64385 12.3211L3.77802 12.4694L3.77934 12.4682L3.64516 12.3199ZM3.78087 12.3213L3.78006 12.3206L3.64444 12.4676L3.64526 12.4683L3.78087 12.3213ZM4.58337 12.1649C4.78764 12.1736 4.99033 12.1256 5.16896 12.0261L5.07165 11.8514C4.92532 11.9329 4.75926 11.9722 4.59192 11.9651L4.58337 12.1649ZM4.5417 12.1538L4.54295 12.1545L4.63234 11.9755L4.63109 11.9749L4.5417 12.1538ZM4.22516 11.6071C4.27114 11.8064 4.37155 11.989 4.51521 12.1346L4.65758 11.9941C4.53993 11.8749 4.4577 11.7253 4.42004 11.5621L4.22516 11.6071ZM4.25476 11.0058C4.18942 11.1996 4.17917 11.4078 4.22516 11.6071L4.42004 11.5621C4.38238 11.3989 4.39077 11.2284 4.44428 11.0697L4.25476 11.0058ZM5.4759 9.82468C5.33953 9.90747 5.07901 10.0744 4.83194 10.2815C4.58907 10.4851 4.34172 10.7416 4.25453 11.0065L4.4445 11.069C4.51271 10.8618 4.72016 10.6361 4.96042 10.4347C5.19647 10.2369 5.44739 10.076 5.5797 9.99563L5.4759 9.82468ZM5.59499 11.6019C5.73368 11.3587 5.75261 10.9994 5.73496 10.6802C5.71699 10.3551 5.65924 10.0468 5.6256 9.88927L5.43001 9.93104C5.46261 10.0837 5.5181 10.3807 5.53527 10.6912C5.55276 11.0076 5.52872 11.3144 5.42124 11.5029L5.59499 11.6019ZM5.16896 12.0261C5.34758 11.9267 5.49515 11.7797 5.5953 11.6014L5.42093 11.5034C5.33889 11.6495 5.21799 11.7699 5.07165 11.8514L5.16896 12.0261ZM2.54502 13.5139C2.69547 13.4677 3.00311 13.3812 3.33197 13.3354C3.66658 13.2887 3.9995 13.2878 4.21537 13.3917L4.30213 13.2115C4.02831 13.0797 3.64248 13.0901 3.30435 13.1373C2.96048 13.1852 2.64141 13.275 2.48623 13.3228L2.54502 13.5139ZM3.81299 14.4973C3.55504 14.4317 3.29936 14.2283 3.07952 13.993C2.86201 13.7602 2.69085 13.5084 2.60016 13.3649L2.43109 13.4718C2.52516 13.6206 2.70392 13.8839 2.93337 14.1295C3.16049 14.3727 3.44878 14.6111 3.76372 14.6911L3.81299 14.4973ZM4.81029 14.1869C4.76858 14.2265 4.64209 14.3374 4.46277 14.4214C4.28393 14.5052 4.05857 14.5596 3.81294 14.4973L3.76378 14.6911C4.06768 14.7682 4.34154 14.699 4.54762 14.6025C4.75322 14.5062 4.89735 14.38 4.94799 14.332L4.81029 14.1869ZM4.21532 13.3917C4.44376 13.5018 4.58146 13.6884 4.66455 13.8676C4.74787 14.0473 4.77335 14.2136 4.77977 14.2706L4.97851 14.2482C4.97071 14.1789 4.94154 13.9895 4.84599 13.7835C4.75022 13.577 4.58484 13.3478 4.30218 13.2115L4.21532 13.3917ZM4.99442 14.2756L4.99611 14.271L4.80852 14.2016L4.80683 14.2062L4.99442 14.2756ZM4.8342 14.3157L4.83514 14.3165L4.96611 14.1653L4.96517 14.1645L4.8342 14.3157ZM4.97241 14.3087L4.97366 14.3074L4.82571 14.1728L4.82446 14.1742L4.97241 14.3087ZM4.82613 14.1715C4.82226 14.1761 4.81866 14.1809 4.81536 14.1858L4.98151 14.2971C4.9806 14.2985 4.97959 14.2998 4.97849 14.3011L4.82613 14.1715ZM5.84221 13.7327L5.83862 13.7315L5.7729 13.9204L5.77649 13.9216L5.84221 13.7327ZM6.321 13.5681C6.16771 13.6677 5.98974 13.7228 5.80695 13.7272L5.81175 13.9272C6.03159 13.9219 6.24564 13.8556 6.43001 13.7358L6.321 13.5681ZM6.67505 13.1629C6.59686 13.3281 6.47428 13.4684 6.321 13.5681L6.43001 13.7358C6.61437 13.6159 6.7618 13.4472 6.85584 13.2484L6.67505 13.1629ZM6.56675 11.4573C6.61212 11.6152 6.69497 11.9318 6.73756 12.2676C6.78089 12.6092 6.77907 12.947 6.67536 13.1622L6.85553 13.249C6.98674 12.9768 6.97964 12.5867 6.93597 12.2424C6.89154 11.8922 6.80565 11.5645 6.75898 11.4021L6.56675 11.4573ZM5.56986 12.7599C5.62902 12.5273 5.83997 12.2653 6.08585 12.0293C6.32771 11.7972 6.58727 11.6051 6.72041 11.5115L6.60532 11.3479C6.46831 11.4443 6.19958 11.6429 5.94736 11.885C5.69916 12.1232 5.45022 12.4189 5.37603 12.7106L5.56986 12.7599ZM5.58046 13.2986C5.52711 13.1237 5.52337 12.9374 5.56968 12.7606L5.3762 12.7099C5.32051 12.9226 5.325 13.1466 5.38917 13.3569L5.58046 13.2986ZM5.87187 13.7509C5.73471 13.63 5.63382 13.4734 5.58046 13.2986L5.38917 13.3569C5.45334 13.5672 5.57468 13.7556 5.73964 13.901L5.87187 13.7509ZM6.86604 15.7613L6.86704 15.7618L6.96509 15.5875L6.96408 15.5869L6.86604 15.7613ZM6.99727 15.7311L6.99827 15.7296L6.83185 15.6186L6.83085 15.6201L6.99727 15.7311ZM6.82913 15.6218C6.8259 15.6277 6.82355 15.6331 6.82281 15.6347L7.00532 15.7165C7.0062 15.7145 7.0056 15.716 7.0045 15.718L6.82913 15.6218ZM7.01484 15.6903L7.01559 15.6855L6.81804 15.6543L6.81729 15.6591L7.01484 15.6903ZM4.33642 15.3937C4.47977 15.3166 4.77994 15.1643 5.11131 15.0494C5.44821 14.9326 5.79467 14.8628 6.04126 14.9273L6.09186 14.7338C5.78275 14.653 5.38597 14.7425 5.0458 14.8604C4.7001 14.9803 4.38937 15.1381 4.2417 15.2175L4.33642 15.3937ZM5.84787 16.1636C5.56574 16.148 5.25848 15.988 4.98315 15.7886C4.71062 15.5912 4.48291 15.3653 4.36178 15.237L4.21635 15.3743C4.34178 15.5071 4.57915 15.7429 4.86584 15.9505C5.14973 16.1561 5.49582 16.3444 5.83682 16.3633L5.84787 16.1636ZM6.81994 15.6377C6.78601 15.6859 6.67855 15.8266 6.50993 15.9507C6.34178 16.0744 6.11805 16.1779 5.84764 16.1636L5.83705 16.3633C6.16742 16.3808 6.43587 16.2535 6.62846 16.1118C6.82059 15.9704 6.94243 15.8111 6.9835 15.7528L6.81994 15.6377ZM6.04131 14.9273C6.30278 14.9955 6.48412 15.1623 6.6065 15.3316C6.72921 15.5014 6.78865 15.6686 6.80626 15.725L6.99718 15.6654C6.97588 15.5972 6.90841 15.4079 6.7686 15.2144C6.62846 15.0205 6.41167 14.8173 6.09182 14.7338L6.04131 14.9273ZM7.7474 15.1624L7.75287 15.1632L7.78392 14.9657L7.77845 14.9648L7.7474 15.1624ZM7.24182 14.6612C7.35039 14.8646 7.51337 15.0338 7.71255 15.15L7.8133 14.9772C7.64614 14.8797 7.50937 14.7377 7.41826 14.567L7.24182 14.6612ZM7.09773 13.9981C7.08336 14.2282 7.13325 14.4578 7.24182 14.6612L7.41826 14.567C7.32715 14.3963 7.28529 14.2036 7.29734 14.0105L7.09773 13.9981ZM8.09108 12.3448C7.97137 12.4696 7.73397 12.7286 7.52189 13.0299C7.31303 13.3266 7.11516 13.6828 7.09769 13.9988L7.29738 14.0098C7.31147 13.7549 7.47837 13.4391 7.68543 13.145C7.88926 12.8554 8.11893 12.6047 8.2354 12.4833L8.09108 12.3448ZM8.72711 14.2538C8.80739 13.9461 8.72047 13.5442 8.60488 13.1968C8.4874 12.8438 8.33192 12.5235 8.25218 12.3683L8.0743 12.4598C8.1519 12.6107 8.30224 12.9208 8.41511 13.26C8.52987 13.6048 8.59783 13.9571 8.53359 14.2033L8.72711 14.2538ZM8.38757 14.8405C8.5531 14.68 8.67072 14.4766 8.72729 14.253L8.5334 14.204C8.48593 14.3916 8.38723 14.5623 8.24833 14.697L8.38757 14.8405ZM7.78995 15.1621C8.01512 15.1124 8.22203 15.0011 8.38757 14.8405L8.24833 14.697C8.10942 14.8317 7.93579 14.9251 7.74684 14.9668L7.78995 15.1621ZM15.7465 4.72299C15.744 4.7229 15.7415 4.72264 15.7389 4.72222L15.7722 4.525C15.766 4.52396 15.7597 4.52332 15.7535 4.52311L15.7465 4.72299ZM15.7699 4.52503L15.7682 4.52472L15.7318 4.72137L15.7335 4.72169L15.7699 4.52503ZM15.8517 4.62442V4.62336H15.6517V4.62442H15.8517ZM15.735 4.52574L15.7312 4.52655L15.7722 4.72229L15.7761 4.72148L15.735 4.52574ZM15.7904 4.69506C15.8386 4.6559 15.9517 4.55531 16.0476 4.40631C16.1438 4.25696 16.2262 4.05329 16.2012 3.81227L16.0023 3.83288C16.0212 4.01491 15.9598 4.17335 15.8795 4.29803C15.799 4.42305 15.703 4.50839 15.6642 4.53994L15.7904 4.69506ZM14.9736 4.06531C15.046 4.29674 15.2022 4.45128 15.3496 4.55042C15.4967 4.64931 15.6404 4.69688 15.7002 4.71374L15.7545 4.52126C15.7065 4.50773 15.5846 4.46741 15.4612 4.38445C15.3382 4.30173 15.2192 4.18045 15.1645 4.00562L14.9736 4.06531ZM15.2598 2.67433C15.2009 2.79975 15.0973 3.03657 15.024 3.29361C14.9521 3.54532 14.9025 3.83851 14.9736 4.06537L15.1645 4.00557C15.1123 3.83922 15.1456 3.59625 15.2163 3.3485C15.2855 3.10609 15.3841 2.88017 15.4408 2.75926L15.2598 2.67433ZM16.2012 3.81228C16.1751 3.5601 16.0268 3.31218 15.8683 3.11076C15.7078 2.90679 15.5264 2.73743 15.4159 2.64135L15.2847 2.79225C15.3903 2.88413 15.5615 3.04422 15.7111 3.23443C15.8628 3.42719 15.9822 3.63818 16.0023 3.83287L16.2012 3.81228ZM17.434 4.62712C17.4159 4.75948 17.3782 4.97602 17.3062 5.19041C17.2332 5.40785 17.1299 5.60772 16.9896 5.72232L17.1162 5.87721C17.301 5.72619 17.4193 5.48204 17.4958 5.25408C17.5734 5.02308 17.6132 4.79286 17.6321 4.65413L17.434 4.62712ZM16.4319 5.16484C16.5338 5.04017 16.7384 4.94139 16.9683 4.8688C17.1929 4.79787 17.4207 4.75812 17.5475 4.73957L17.5186 4.54168C17.3868 4.56094 17.1472 4.60256 16.908 4.67809C16.6741 4.75197 16.4188 4.86475 16.277 5.03829L16.4319 5.16484ZM16.332 5.88695C16.3174 5.84151 16.2861 5.72683 16.2876 5.58923C16.289 5.45225 16.3228 5.2983 16.4319 5.16486L16.277 5.03827C16.131 5.21694 16.0894 5.4197 16.0876 5.58708C16.0858 5.75384 16.1232 5.89115 16.1417 5.94836L16.332 5.88695ZM16.9896 5.72235C16.8562 5.83139 16.7023 5.86513 16.5653 5.86665C16.4276 5.86817 16.3129 5.83695 16.2673 5.82239L16.2065 6.01292C16.2634 6.0311 16.4007 6.06848 16.5675 6.06663C16.7348 6.06479 16.9376 6.02322 17.1162 5.87718L16.9896 5.72235ZM16.3333 5.89767L16.331 5.89324L16.1536 5.98567L16.1559 5.99011L16.3333 5.89767ZM16.1715 6.01216L16.1739 6.0146L16.3153 5.87318L16.3129 5.87074L16.1715 6.01216ZM16.2045 5.84883L16.2037 5.84915L16.2806 6.03376L16.2814 6.03345L16.2045 5.84883ZM16.1485 5.97417L16.1492 5.97585L16.3367 5.90643L16.3361 5.90474L16.1485 5.97417ZM15.0268 5.87384C14.9008 5.85553 14.7823 5.80279 14.6844 5.72144L14.5566 5.87528C14.6828 5.98016 14.8356 6.04815 14.998 6.07176L15.0268 5.87384ZM15.3984 5.82525C15.2813 5.87535 15.1528 5.89216 15.0268 5.87384L14.998 6.07176C15.1604 6.09538 15.3262 6.0737 15.4771 6.00912L15.3984 5.82525ZM15.3945 5.50622C15.4128 5.6322 15.3959 5.76079 15.3458 5.87782L15.5297 5.95655C15.5943 5.80567 15.616 5.63988 15.5924 5.47746L15.3945 5.50622ZM15.2421 5.16382C15.3234 5.26175 15.3761 5.38023 15.3945 5.50622L15.5924 5.47746C15.5688 5.31503 15.5008 5.16227 15.3959 5.03602L15.2421 5.16382ZM14.1224 4.70184C14.2522 4.72589 14.4804 4.77467 14.7048 4.85315C14.9341 4.93336 15.139 5.03789 15.2416 5.16324L15.3964 5.0366C15.256 4.86507 15.0039 4.74589 14.7709 4.66437C14.5328 4.58111 14.2934 4.53013 14.1588 4.50519L14.1224 4.70184ZM14.6838 5.72094C14.5594 5.61929 14.4576 5.41247 14.3808 5.17924C14.3058 4.95133 14.261 4.71895 14.2393 4.58727L14.042 4.61976C14.0644 4.75621 14.1112 4.99996 14.1908 5.2418C14.2687 5.47831 14.3848 5.73485 14.5572 5.87578L14.6838 5.72094ZM16.9735 7.84169L16.9709 7.83688L16.7953 7.93266L16.798 7.93747L16.9735 7.84169ZM16.8145 7.95984L16.8174 7.96259L16.9541 7.81657L16.9511 7.81382L16.8145 7.95984ZM16.8414 7.79578L16.8405 7.79622L16.9251 7.97744L16.9261 7.977L16.8414 7.79578ZM16.7898 7.92065L16.7904 7.92227L16.9771 7.85051L16.9765 7.84889L16.7898 7.92065ZM16.9672 7.83042C16.951 7.78245 16.9143 7.6567 16.9126 7.50495C16.9109 7.3536 16.9438 7.18306 17.0594 7.03569L16.902 6.91228C16.7498 7.10639 16.7105 7.32647 16.7126 7.5072C16.7146 7.68752 16.7577 7.83528 16.7778 7.89458L16.9672 7.83042ZM17.6909 7.64193C17.5483 7.76346 17.3792 7.80339 17.2279 7.80786C17.0762 7.81234 16.9492 7.78081 16.9007 7.76656L16.8443 7.95844C16.9043 7.97607 17.0536 8.01309 17.2338 8.00777C17.4145 8.00243 17.6328 7.95419 17.8206 7.79417L17.6909 7.64193ZM18.1502 6.43789C18.1342 6.57894 18.0987 6.81508 18.0255 7.05079C17.9514 7.28961 17.8431 7.51226 17.6909 7.64192L17.8206 7.79417C18.0169 7.62696 18.1391 7.35938 18.2165 7.11009C18.2949 6.85769 18.3322 6.60785 18.349 6.46055L18.1502 6.43789ZM17.0594 7.03568C17.1694 6.8953 17.3934 6.7828 17.6423 6.6992C17.886 6.61738 18.1325 6.5699 18.2659 6.54788L18.2333 6.35055C18.095 6.37338 17.8367 6.42294 17.5787 6.50961C17.3259 6.5945 17.0512 6.72197 16.902 6.91229L17.0594 7.03568ZM14.4876 6.50442C14.5139 6.64759 14.5692 6.91032 14.6605 7.17136C14.7499 7.42703 14.8811 7.70312 15.0703 7.85143L15.1937 7.69404C15.0536 7.58423 14.9376 7.35793 14.8493 7.10534C14.7628 6.85812 14.7098 6.6067 14.6843 6.46824L14.4876 6.50442ZM15.9521 6.93262C15.7968 6.75049 15.5204 6.62723 15.265 6.54435C15.0045 6.45982 14.7443 6.4107 14.6019 6.38762L14.5699 6.58504C14.7075 6.60735 14.9565 6.65451 15.2032 6.73458C15.455 6.81628 15.6836 6.92592 15.7999 7.06238L15.9521 6.93262ZM16.1723 7.40299C16.1436 7.22867 16.0672 7.06569 15.9516 6.93208L15.8004 7.06292C15.8918 7.16864 15.9523 7.29759 15.975 7.43551L16.1723 7.40299ZM16.1144 7.9198C16.181 7.75617 16.2011 7.5773 16.1723 7.40299L15.975 7.43551C15.9977 7.57343 15.9819 7.71495 15.9292 7.84442L16.1144 7.9198ZM15.5492 8.05228C15.7246 8.07384 15.9025 8.04643 16.0633 7.97309L15.9803 7.79113C15.8531 7.84915 15.7124 7.87083 15.5736 7.85378L15.5492 8.05228ZM15.0697 7.85095C15.2079 7.96105 15.3739 8.03073 15.5492 8.05228L15.5736 7.85378C15.4349 7.83673 15.3036 7.7816 15.1943 7.69452L15.0697 7.85095ZM17.8182 10.0942C17.6327 10.1873 17.4412 10.1848 17.2793 10.1494C17.1171 10.114 16.9913 10.0468 16.9457 10.0199L16.8443 10.1923C16.9002 10.2252 17.0463 10.3032 17.2367 10.3448C17.4274 10.3865 17.6691 10.3928 17.9079 10.2729L17.8182 10.0942ZM18.616 8.93973C18.5641 9.0812 18.4665 9.32112 18.3283 9.55185C18.1884 9.78541 18.0154 9.99524 17.8182 10.0942L17.9079 10.2729C18.1571 10.1479 18.3544 9.89752 18.4999 9.6546C18.6471 9.40885 18.7497 9.15602 18.8037 9.00859L18.616 8.93973ZM17.2995 9.27621C17.4547 9.15456 17.7238 9.0942 18.0087 9.07102C18.288 9.0483 18.5599 9.06272 18.702 9.07386L18.7177 8.87447C18.5707 8.86295 18.2869 8.84772 17.9925 8.87168C17.7037 8.89518 17.3814 8.95783 17.1761 9.11883L17.2995 9.27621ZM16.9946 10.097C16.9897 10.0442 16.9826 9.90186 17.0197 9.74001C17.0568 9.5786 17.1362 9.40428 17.2995 9.27621L17.1761 9.11883C16.9658 9.28373 16.8685 9.50499 16.8248 9.69528C16.7812 9.88513 16.7895 10.0506 16.7954 10.1153L16.9946 10.097ZM16.9973 10.1074L16.9958 10.102L16.8031 10.1558L16.8046 10.1612L16.9973 10.1074ZM16.8157 10.1867L16.8182 10.1904L16.9837 10.0782L16.9812 10.0745L16.8157 10.1867ZM16.8994 10.0306H16.8984V10.2306H16.8994V10.0306ZM16.7994 10.1289V10.1306H16.9994V10.1289H16.7994ZM16.0875 9.42905C16.0755 9.58177 16.0213 9.72816 15.9311 9.85195L16.0927 9.96977C16.2047 9.8161 16.2719 9.63438 16.2869 9.44479L16.0875 9.42905ZM15.9994 8.98683C16.0691 9.12325 16.0996 9.27632 16.0875 9.42905L16.2869 9.44479C16.3019 9.25521 16.264 9.06518 16.1775 8.89583L15.9994 8.98683ZM14.8222 8.1624C14.9575 8.21972 15.208 8.33327 15.4488 8.48172C15.6941 8.63301 15.9103 8.80929 15.999 8.98617L16.1778 8.89649C16.062 8.66563 15.8021 8.46465 15.5537 8.31148C15.3007 8.15548 15.0399 8.03739 14.9002 7.97823L14.8222 8.1624ZM15.181 9.50485C15.0596 9.35004 14.9961 9.07737 14.9689 8.78732C14.9422 8.50303 14.952 8.22446 14.961 8.07635L14.7613 8.06427C14.7521 8.21711 14.7417 8.50716 14.7698 8.80602C14.7973 9.09911 14.8635 9.4241 15.0237 9.62828L15.181 9.50485ZM15.5438 9.77379C15.4006 9.71956 15.2751 9.62666 15.1815 9.50543L15.0232 9.6277C15.1395 9.77819 15.2952 9.89351 15.473 9.96084L15.5438 9.77379ZM15.993 9.81265C15.8426 9.84147 15.6871 9.82802 15.5438 9.77379L15.473 9.96084C15.6509 10.0282 15.8439 10.0449 16.0307 10.0091L15.993 9.81265ZM16.7663 11.4029C16.5147 11.5464 16.3761 11.768 16.3001 11.9646C16.2242 12.1609 16.2082 12.3383 16.2048 12.4055L16.4046 12.4154C16.4073 12.3603 16.4212 12.206 16.4866 12.0368C16.5518 11.868 16.6658 11.6905 16.8654 11.5767L16.7663 11.4029ZM18.4517 11.3878C18.3009 11.3529 18.0001 11.2909 17.6805 11.2691C17.3666 11.2478 17.0109 11.2632 16.7663 11.403L16.8655 11.5767C17.0543 11.4688 17.3568 11.4476 17.667 11.4687C17.9714 11.4894 18.2605 11.5488 18.4066 11.5826L18.4517 11.3878ZM17.3617 12.7432C17.6476 12.6492 17.8984 12.4117 18.0925 12.1739C18.2888 11.9334 18.4378 11.6791 18.5171 11.5329L18.3412 11.4376C18.265 11.5782 18.1228 11.8205 17.9376 12.0474C17.7503 12.2769 17.5295 12.4775 17.2992 12.5533L17.3617 12.7432ZM16.2414 12.4879C16.2935 12.5305 16.4359 12.6375 16.6323 12.7128C16.8292 12.7882 17.0866 12.834 17.3618 12.7432L17.2992 12.5533C17.081 12.6252 16.8728 12.5908 16.7039 12.526C16.5345 12.4611 16.4107 12.3679 16.368 12.333L16.2414 12.4879ZM16.2071 12.449C16.2073 12.4502 16.2075 12.4516 16.2075 12.4516C16.2076 12.452 16.2075 12.4515 16.2074 12.4508C16.2072 12.4494 16.2066 12.4453 16.2066 12.4398H16.4066C16.4066 12.4322 16.4059 12.426 16.4054 12.4225C16.4051 12.4207 16.4049 12.4193 16.4048 12.4186C16.4046 12.4176 16.4046 12.418 16.4047 12.4181L16.2071 12.449ZM16.4059 12.4354V12.4336H16.2059V12.4354H16.4059ZM16.3047 12.5354H16.3059V12.3354H16.3047V12.5354ZM16.3983 12.3998L16.3963 12.3954L16.213 12.4754L16.215 12.4799L16.3983 12.3998ZM14.3741 9.88939C14.3407 10.0468 14.283 10.3551 14.2649 10.6802C14.2472 10.9994 14.266 11.3587 14.4048 11.602L14.5785 11.5029C14.471 11.3144 14.4471 11.0076 14.4646 10.6912C14.4818 10.3807 14.5373 10.0837 14.5698 9.93092L14.3741 9.88939ZM15.7452 11.0065C15.658 10.7416 15.4106 10.485 15.1677 10.2814C14.9207 10.0743 14.6602 9.90743 14.5239 9.82468L14.4201 9.99563C14.5523 10.0759 14.8032 10.2368 15.0393 10.4347C15.2795 10.6361 15.487 10.8618 15.5553 11.0691L15.7452 11.0065ZM15.7746 11.6072C15.8206 11.4079 15.8103 11.1997 15.745 11.0059L15.5555 11.0698C15.609 11.2285 15.6174 11.399 15.5797 11.5622L15.7746 11.6072ZM15.4846 12.1347C15.6282 11.9891 15.7286 11.8065 15.7746 11.6072L15.5797 11.5622C15.5421 11.7254 15.4598 11.875 15.3422 11.9942L15.4846 12.1347ZM15.4521 12.1567L15.4534 12.1561L15.3734 11.9728L15.3721 11.9733L15.4521 12.1567ZM14.8307 12.0264C15.0094 12.1259 15.2122 12.1738 15.4165 12.1649L15.4078 11.9651C15.2404 11.9724 15.0743 11.9331 14.928 11.8516L14.8307 12.0264ZM14.4044 11.6013C14.5045 11.7797 14.652 11.9269 14.8307 12.0264L14.928 11.8516C14.7817 11.7701 14.6608 11.6496 14.5789 11.5035L14.4044 11.6013ZM15.2129 14.2535L15.2112 14.249L15.0231 14.317L15.0248 14.3215L15.2129 14.2535ZM15.0188 14.2857L15.0188 14.2889L15.2188 14.2861L15.2188 14.283L15.0188 14.2857ZM15.019 14.2918L15.0193 14.295L15.2182 14.2738L15.2179 14.2707L15.019 14.2918ZM15.2184 14.2831V14.2812H15.0184V14.2831H15.2184ZM15.1072 14.3825L15.1085 14.3826L15.1284 14.1836L15.1271 14.1835L15.1072 14.3825ZM15.6942 13.2115C15.4115 13.3478 15.2461 13.5768 15.1504 13.7834C15.0549 13.9894 15.0257 14.1788 15.0178 14.2481L15.2165 14.2706C15.223 14.2134 15.2485 14.0471 15.3318 13.8675C15.4149 13.6883 15.5526 13.5018 15.781 13.3917L15.6942 13.2115ZM17.5101 13.3228C17.3547 13.2751 17.0355 13.1852 16.6917 13.1373C16.3535 13.0901 15.9678 13.0797 15.6942 13.2115L15.781 13.3917C15.9966 13.2878 16.3294 13.2887 16.664 13.3354C16.9929 13.3812 17.3007 13.4677 17.4513 13.514L17.5101 13.3228ZM16.2326 14.6911C16.5475 14.6111 16.8358 14.3727 17.063 14.1296C17.2924 13.884 17.4712 13.6206 17.5652 13.4718L17.3962 13.365C17.3055 13.5084 17.1343 13.7602 16.9168 13.993C16.697 14.2283 16.4413 14.4317 16.1833 14.4973L16.2326 14.6911ZM15.0483 14.3319C15.099 14.3799 15.2431 14.5061 15.4487 14.6025C15.6548 14.6991 15.9286 14.7682 16.2326 14.6911L16.1834 14.4973C15.9378 14.5596 15.7124 14.5052 15.5336 14.4214C15.3542 14.3374 15.2278 14.2264 15.186 14.1868L15.0483 14.3319ZM14.1582 13.7317L14.1546 13.733L14.2203 13.9219L14.2239 13.9206L14.1582 13.7317ZM14.4166 13.2987C14.3632 13.4736 14.2622 13.6303 14.125 13.7511L14.2571 13.9012C14.4222 13.7559 14.5436 13.5675 14.6079 13.3571L14.4166 13.2987ZM14.4274 12.7606C14.4738 12.9375 14.47 13.1238 14.4166 13.2987L14.6079 13.3571C14.6721 13.1468 14.6766 12.9227 14.6209 12.7099L14.4274 12.7606ZM13.2767 11.5115C13.4098 11.6051 13.6694 11.797 13.9112 12.0291C14.1571 12.265 14.368 12.527 14.4272 12.7599L14.6211 12.7106C14.5468 12.4186 14.2979 12.1229 14.0497 11.8847C13.7974 11.6427 13.5287 11.4443 13.3918 11.3479L13.2767 11.5115ZM13.3218 13.1622C13.2181 12.947 13.2162 12.6092 13.2596 12.2675C13.3021 11.9318 13.385 11.6152 13.4304 11.4573L13.2381 11.4021C13.1915 11.5645 13.1056 11.8921 13.0611 12.2424C13.0175 12.5867 13.0104 12.9768 13.1417 13.249L13.3218 13.1622ZM13.676 13.5682C13.5228 13.4685 13.4003 13.3282 13.3221 13.1629L13.1413 13.2484C13.2353 13.4471 13.3826 13.6159 13.5669 13.7358L13.676 13.5682ZM14.1899 13.7275C14.0071 13.723 13.8292 13.6678 13.676 13.5682L13.5669 13.7358C13.7512 13.8557 13.9652 13.922 14.185 13.9274L14.1899 13.7275ZM13.9115 14.7336C13.5916 14.8171 13.3749 15.0204 13.2347 15.2143C13.0949 15.4078 13.0275 15.597 13.0061 15.6651L13.197 15.7249C13.2147 15.6685 13.2741 15.5013 13.3968 15.3315C13.5192 15.1621 13.7006 14.9953 13.962 14.9271L13.9115 14.7336ZM15.7615 15.2173C15.6138 15.1379 15.303 14.9803 14.9573 14.8605C14.6171 14.7426 14.2204 14.6531 13.9115 14.7336L13.9619 14.9271C14.2084 14.8629 14.5549 14.9327 14.8918 15.0495C15.2233 15.1643 15.5235 15.3164 15.6669 15.3935L15.7615 15.2173ZM14.1665 16.363C14.5074 16.3442 14.8535 16.1559 15.1374 15.9503C15.4241 15.7427 15.6615 15.5069 15.7869 15.374L15.6415 15.2367C15.5204 15.365 15.2926 15.5909 15.0201 15.7883C14.7447 15.9877 14.4375 16.1477 14.1554 16.1633L14.1665 16.363ZM13.0198 15.7526C13.061 15.811 13.183 15.9701 13.3751 16.1114C13.5678 16.253 13.8361 16.3803 14.1662 16.363L14.1557 16.1633C13.8856 16.1774 13.6619 16.0739 13.4936 15.9502C13.3249 15.8262 13.2173 15.6856 13.1833 15.6374L13.0198 15.7526ZM13.1933 15.7079L13.1926 15.703L12.9949 15.7334L12.9957 15.7382L13.1933 15.7079ZM12.9957 15.7081C12.9959 15.7068 12.9961 15.7054 12.9963 15.704L13.1927 15.7421C13.1937 15.7366 13.1945 15.731 13.195 15.7255L12.9957 15.7081ZM13.1922 15.742L13.1926 15.7402L12.9982 15.6934L12.9977 15.6952L13.1922 15.742ZM13.0592 15.812L13.0603 15.8124L13.1295 15.6248L13.1283 15.6243L13.0592 15.812ZM11.2747 14.2548C11.3313 14.4784 11.4489 14.6818 11.6145 14.8423L11.7537 14.6988C11.6148 14.564 11.5161 14.3934 11.4686 14.2058L11.2747 14.2548ZM11.7499 12.3703C11.6702 12.5254 11.5147 12.8458 11.3973 13.1988C11.2817 13.5462 11.1948 13.9481 11.2749 14.2555L11.4684 14.2051C11.4043 13.9591 11.4723 13.6069 11.587 13.262C11.6999 12.9227 11.8502 12.6126 11.9278 12.4617L11.7499 12.3703ZM12.9043 14.0008C12.887 13.6846 12.6892 13.3282 12.4803 13.0316C12.2682 12.7303 12.0307 12.4715 11.911 12.3468L11.7667 12.4853C11.8832 12.6066 12.1129 12.8572 12.3168 13.1467C12.5238 13.4408 12.6907 13.7566 12.7046 14.0117L12.9043 14.0008ZM12.7602 14.663C12.8687 14.4597 12.9186 14.2301 12.9043 14L12.7047 14.0125C12.7167 14.2055 12.6748 14.3982 12.5837 14.5688L12.7602 14.663ZM12.2896 15.1518C12.4887 15.0356 12.6516 14.8664 12.7602 14.663L12.5837 14.5688C12.4926 14.7395 12.3559 14.8815 12.1888 14.979L12.2896 15.1518ZM12.2489 15.1651L12.2545 15.1642L12.2239 14.9666L12.2183 14.9674L12.2489 15.1651ZM11.6145 14.8423C11.78 15.0029 11.9869 15.1142 12.2121 15.1639L12.2552 14.9686C12.0662 14.9269 11.8926 14.8335 11.7537 14.6988L11.6145 14.8423Z" fill="black"/>
</g>
</g>
</svg>
