<svg width="16" height="16" viewBox="0 0 16 16" fill="none" xmlns="http://www.w3.org/2000/svg">
<path d="M2.25001 1.531H9.75001C10.018 1.531 10.266 1.385 10.4 1.148C10.534 0.911403 10.534 0.619498 10.4 0.382698C10.266 0.145898 10.018 0 9.75001 0H2.25001C1.65301 0 1.081 0.2419 0.659002 0.6726C0.237002 1.103 5.55727e-06 1.687 5.55727e-06 2.297V14.685C-0.000994443 15.033 0.132998 15.367 0.373998 15.614C0.614998 15.86 0.941003 15.999 1.282 16C1.623 16.001 1.95101 15.863 2.19201 15.617L6.00001 11.726L9.808 15.617C10.049 15.863 10.377 16.001 10.718 16C11.059 15.999 11.385 15.86 11.626 15.614C11.867 15.367 12.001 15.033 12 14.685V8.344C12 8.071 11.857 7.818 11.625 7.681C11.393 7.545 11.107 7.545 10.875 7.681C10.643 7.818 10.5 8.071 10.5 8.344V14.155L6.53101 10.101C6.39001 9.957 6.19901 9.877 6.00001 9.877C5.80101 9.877 5.61 9.957 5.469 10.101L1.50001 14.155V2.297C1.50001 2.094 1.57901 1.899 1.72001 1.756C1.86001 1.612 2.05101 1.531 2.25001 1.531Z" fill="#1A1A1A"/>
<path d="M15.4 3.4H13.6V1.6C13.6 1.386 13.486 1.188 13.3 1.08C13.114 0.973201 12.886 0.973201 12.7 1.08C12.514 1.188 12.4 1.386 12.4 1.6V3.4H10.6C10.386 3.4 10.188 3.514 10.08 3.7C9.97301 3.886 9.97301 4.114 10.08 4.3C10.188 4.486 10.386 4.6 10.6 4.6H12.4V6.4C12.4 6.614 12.514 6.812 12.7 6.92C12.886 7.027 13.114 7.027 13.3 6.92C13.486 6.812 13.6 6.614 13.6 6.4V4.6H15.4C15.614 4.6 15.812 4.486 15.92 4.3C16.027 4.114 16.027 3.886 15.92 3.7C15.812 3.514 15.614 3.4 15.4 3.4Z" fill="#1A1A1A"/>
</svg>
