<svg width="16" height="16" viewBox="0 0 16 16" fill="none" xmlns="http://www.w3.org/2000/svg">
<g id="event 1" clip-path="url(#clip0_278_3009)">
<g id="Group">
<g id="Group_2">
<g id="Group_3">
<path id="Vector" d="M14.345 1.73559C14.3123 1.73426 14.2796 1.73404 14.2469 1.73496H13.0131V0.674709C13.0132 0.250608 12.6083 0 12.1842 0H11.0469C10.6228 0 10.3144 0.250608 10.3144 0.674709V1.73492H5.68785V0.674709C5.68785 0.250608 5.37942 0 4.95532 0H3.81795C3.39389 0 2.98905 0.250608 2.98905 0.674709V1.73492H1.75534C0.9678 1.71297 0.311577 2.33362 0.289623 3.12113C0.2887 3.15382 0.288922 3.18658 0.29025 3.21928V14.3614C0.29025 15.2096 0.907103 16 1.7553 16H14.2469C15.0951 16 15.712 15.2096 15.712 14.3614V3.21928C15.7442 2.4321 15.1322 1.76784 14.345 1.73559ZM11.0469 0.771085H12.2421V2.89155H11.0469V0.771085ZM3.81799 0.771085H4.9168V2.89155H3.81799V0.771085ZM14.9409 14.3614C14.9409 14.7855 14.671 15.2289 14.2469 15.2289H1.75534C1.33124 15.2289 1.06137 14.7855 1.06137 14.3614V6.16868H14.9409V14.3614ZM14.9409 3.21928V5.3976H1.06134V3.21928C1.02868 2.85879 1.29445 2.54007 1.65494 2.50741C1.6883 2.50439 1.72188 2.50394 1.7553 2.50605H2.98905V2.93015C2.98905 3.35425 3.39385 3.66267 3.81795 3.66267H4.95532C5.34909 3.67348 5.67704 3.36299 5.68785 2.96922C5.68822 2.9562 5.68822 2.94317 5.68785 2.93015V2.50601H10.3144V2.93011C10.3035 3.32388 10.614 3.65183 11.0078 3.66264C11.0208 3.66301 11.0339 3.66301 11.0469 3.66264H12.1843C12.6084 3.66264 13.0132 3.35421 13.0132 2.93011V2.50601H14.2469C14.6082 2.48324 14.9195 2.75765 14.9422 3.11891C14.9443 3.15234 14.9439 3.18592 14.9409 3.21928Z" fill="#191B1F"/>
<path id="Vector_2" d="M5.86378 11.4318L5.5168 13.3595C5.50307 13.4422 5.51665 13.5271 5.5555 13.6014C5.6542 13.7901 5.88717 13.863 6.07583 13.7643L7.81075 12.8583L9.54568 13.7643L9.71917 13.8029C9.80282 13.8043 9.88447 13.7771 9.95048 13.7257C10.0657 13.6416 10.125 13.5007 10.1047 13.3595L9.75773 11.4317L11.165 10.0824C11.2657 9.97355 11.3022 9.82006 11.2613 9.67756C11.2094 9.54584 11.0925 9.45083 10.9529 9.42695L9.0252 9.13779L8.15774 7.38357C8.11992 7.30549 8.0569 7.24243 7.97882 7.20465C7.78718 7.11185 7.5566 7.19196 7.46377 7.38357L6.59631 9.13779L4.66859 9.42695C4.52905 9.45079 4.41208 9.54584 4.36017 9.67756C4.31932 9.82006 4.35589 9.97355 4.45654 10.0824L5.86378 11.4318ZM6.92403 9.87035C7.04509 9.85223 7.14767 9.77165 7.1939 9.6583L7.81075 8.42456L8.42761 9.6583C8.47388 9.77165 8.57642 9.85223 8.69748 9.87035L10.0662 10.0631L9.08302 11.0077C8.99144 11.0983 8.94849 11.2272 8.96734 11.3547L9.19866 12.7233L7.98421 12.0679L7.81072 12.0294L7.63722 12.0679L6.42278 12.7233L6.65409 11.3547C6.67298 11.2272 6.62999 11.0983 6.53841 11.0077L5.55528 10.0631L6.92403 9.87035Z" fill="#191B1F"/>
</g>
</g>
</g>
</g>
<defs>
<clipPath id="clip0_278_3009">
<rect width="16" height="16" fill="white"/>
</clipPath>
</defs>
</svg>
