<svg width="16" height="16" viewBox="0 0 16 16" fill="none" xmlns="http://www.w3.org/2000/svg">
<g id="crown (2) 1" clip-path="url(#clip0_278_3027)">
<g id="Group">
<g id="Group_2">
<path id="Vector" d="M15.7807 4.66016C15.5917 4.5024 15.3249 4.46916 15.1014 4.57555L11.6813 6.20355L8.47216 2.58571C8.35348 2.45188 8.18119 2.375 8.00001 2.375C7.81882 2.375 7.64657 2.45188 7.52785 2.58571L4.31873 6.20352L0.898601 4.57552C0.675069 4.46916 0.408382 4.50237 0.219319 4.66013C0.0302569 4.81789 -0.0452431 5.07021 0.0270381 5.30274L2.40204 12.9416C2.48207 13.1991 2.72485 13.375 3.00001 13.375H13C13.2751 13.375 13.5179 13.1991 13.5979 12.9417L15.9729 5.30277C16.0453 5.07024 15.9698 4.81792 15.7807 4.66016ZM12.5367 12.1528H3.46323L1.63976 6.2877L4.20294 7.50781C4.45744 7.62894 4.76326 7.56776 4.94866 7.35876L8.00001 3.91882L11.0514 7.35876C11.2368 7.56779 11.5427 7.62891 11.7971 7.50781L14.3603 6.2877L12.5367 12.1528Z" fill="#191B1F"/>
</g>
</g>
</g>
<defs>
<clipPath id="clip0_278_3027">
<rect width="16" height="16" fill="white"/>
</clipPath>
</defs>
</svg>
