<svg width="18" height="18" viewBox="0 0 18 18" fill="none" xmlns="http://www.w3.org/2000/svg">
<g id="home (3) 1">
<path id="Vector" d="M16.6 7.92799C16.5995 7.92763 16.5992 7.92714 16.5988 7.92677L10.0721 1.40027C9.79386 1.12195 9.42398 0.96875 9.03055 0.96875C8.63712 0.96875 8.26724 1.12195 7.98892 1.40027L1.46559 7.92348C1.4634 7.92567 1.46108 7.92799 1.459 7.93019C0.887711 8.50478 0.888688 9.43703 1.46181 10.0101C1.72365 10.2721 2.06935 10.4237 2.43911 10.4397C2.45424 10.4412 2.46938 10.4419 2.48464 10.4419H2.74465V15.2449C2.74465 16.1955 3.51809 16.9688 4.46865 16.9688H7.02212C7.28103 16.9688 7.49087 16.7588 7.49087 16.5V12.7344C7.49087 12.3007 7.84378 11.9479 8.2775 11.9479H9.7836C10.2173 11.9479 10.5701 12.3007 10.5701 12.7344V16.5C10.5701 16.7588 10.7799 16.9688 11.0389 16.9688H13.5923C14.543 16.9688 15.3163 16.1955 15.3163 15.2449V10.4419H15.5575C15.9509 10.4419 16.3207 10.2887 16.5992 10.0103C17.1729 9.4363 17.1731 8.50233 16.6 7.92799ZM15.9362 9.34743C15.835 9.44863 15.7005 9.50441 15.5575 9.50441H14.8476C14.5887 9.50441 14.3788 9.71425 14.3788 9.97316V15.2449C14.3788 15.6785 14.026 16.0313 13.5923 16.0313H11.5076V12.7344C11.5076 11.7838 10.7343 11.0104 9.7836 11.0104H8.2775C7.32681 11.0104 6.55337 11.7838 6.55337 12.7344V16.0313H4.46865C4.03506 16.0313 3.68215 15.6785 3.68215 15.2449V9.97316C3.68215 9.71425 3.47231 9.50441 3.2134 9.50441H2.51564C2.50832 9.50392 2.50112 9.50356 2.49367 9.50344C2.35402 9.50099 2.22304 9.44557 2.1249 9.34731C1.91616 9.13857 1.91616 8.79884 2.1249 8.58998C2.12502 8.58998 2.12502 8.58986 2.12514 8.58974L2.12551 8.58937L8.65201 2.06311C8.75308 1.96192 8.88748 1.90625 9.03055 1.90625C9.17349 1.90625 9.30789 1.96192 9.40909 2.06311L15.9341 8.58803C15.9351 8.589 15.9362 8.58998 15.9372 8.59096C16.1448 8.80006 16.1445 9.13905 15.9362 9.34743Z" fill="#191B1F" stroke="black" stroke-width="0.4"/>
</g>
</svg>
