<svg width="16" height="16" viewBox="0 0 16 16" fill="none" xmlns="http://www.w3.org/2000/svg">
<path d="M13.0345 1.30568e-05C12.2482 -0.00232713 11.4936 0.309994 10.939 0.867109L5.56648 6.24268C4.64306 7.16019 4.12539 8.40931 4.12917 9.71116V11.8711H6.28902C7.58989 11.8742 8.83785 11.3565 9.75462 10.4337L15.1327 5.06093C15.6882 4.50471 16.0001 3.75061 16 2.96434C15.9996 2.17808 15.6869 1.42416 15.1309 0.868307C14.5749 0.312593 13.8208 0.000289402 13.0348 0.000289402L13.0345 1.30568e-05ZM14.0357 3.96388L8.66311 9.33945C8.03489 9.9713 7.18004 10.3254 6.28902 10.3227H5.67753V9.71116C5.67555 8.82102 6.02944 7.96701 6.66071 7.3395L12.036 1.96393C12.3973 1.62515 12.9092 1.49969 13.3863 1.63307C13.8633 1.76645 14.236 2.13906 14.3692 2.61611C14.5026 3.09316 14.3772 3.60528 14.0384 3.96657L14.0357 3.96388Z" fill="#262626"/>
<path d="M2.83867 16H12.1286C12.8813 16 13.6033 15.7008 14.1356 15.1685C14.6681 14.636 14.9671 13.914 14.9671 13.1612V9.03204H13.4188V13.1612C13.4188 13.5034 13.2827 13.8315 13.0408 14.0736C12.7989 14.3156 12.4708 14.4515 12.1286 14.4515H2.83867C2.49648 14.4515 2.16833 14.3156 1.92622 14.0736C1.6843 13.8315 1.5484 13.5034 1.5484 13.1612V3.87085C1.5484 3.52864 1.6843 3.20048 1.92622 2.95854C2.16833 2.71661 2.49647 2.58052 2.83867 2.58052H6.9676V1.03223H2.83867C2.08589 1.03223 1.3639 1.33123 0.831436 1.8637C0.299157 2.396 0 3.11803 0 3.87084V13.1612C0 13.914 0.299166 14.636 0.831436 15.1685C1.3639 15.7008 2.08589 16 2.83867 16L2.83867 16Z" fill="#262626"/>
</svg>
