<svg width="14" height="14" viewBox="0 0 14 14" fill="none" xmlns="http://www.w3.org/2000/svg">
<path d="M2.6775 1.12109L2.06494 1.74896C0.734969 3.11202 0 4.90573 0 6.82517C0 8.7446 0.735 10.5382 2.0475 11.9014C3.4125 13.3005 5.215 14 7 14C8.785 14 10.5875 13.3005 11.9525 11.9014C13.265 10.5382 14 8.74447 14 6.82517C14 4.90586 13.265 3.11218 11.9525 1.74896L11.3399 1.12109L10.0974 2.39469L10.7099 3.02256C11.7075 4.04491 12.25 5.3902 12.25 6.82523C12.25 8.26027 11.7075 9.60552 10.7099 10.6279C8.66244 12.7265 5.33744 12.7265 3.28994 10.6279C2.2925 9.62346 1.75003 8.26027 1.75003 6.82523C1.75003 5.3902 2.2925 4.04494 3.29006 3.02256L3.90263 2.39469L2.6775 1.12109Z" fill="#262626"/>
<path d="M7.875 7.17485V0H6.125V7.17485H7.875Z" fill="#262626"/>
</svg>
