<svg width="16" height="16" viewBox="0 0 16 16" fill="none" xmlns="http://www.w3.org/2000/svg">
<g id="chat 1" clip-path="url(#clip0_278_3018)">
<g id="Group">
<path id="Vector" d="M14.3983 13.7238C17.1833 10.5116 16.2143 5.51784 12.4267 3.56978C11.3328 1.45153 9.12185 0 6.57813 0C2.95113 0 0.000381169 2.95094 0.000381169 6.57812C0.000381169 8.17497 0.565631 9.68522 1.60154 10.8801L0.13985 12.3226C-0.1564 12.615 0.0488186 13.123 0.466881 13.125L3.99676 13.1418C5.21316 14.9118 7.22263 16 9.42176 16C9.42626 16 15.5294 15.9688 15.533 15.9688C15.9497 15.9668 16.1573 15.4597 15.86 15.1663L14.3983 13.7238ZM2.58632 10.563C1.52329 9.49803 0.937819 8.08281 0.937819 6.57812C0.937819 3.46788 3.46807 0.9375 6.57813 0.9375C9.68819 0.9375 12.2184 3.46788 12.2184 6.57812C12.2184 9.55853 9.85991 12.2428 6.39523 12.2157L1.60591 12.1929L2.58382 11.2278C2.76876 11.0453 2.76985 10.7469 2.58632 10.563ZM9.42176 15.0625C7.77694 15.0625 6.2481 14.3597 5.18535 13.1475C6.96985 13.1592 6.49613 13.1562 6.57813 13.1562C10.8094 13.1562 13.9689 9.18722 12.9747 5.04322C15.5673 7.16116 15.7797 11.0363 13.4136 13.4068C13.23 13.5907 13.2311 13.8891 13.4161 14.0716L14.394 15.0367C14.3903 15.0367 9.42538 15.0625 9.42176 15.0625Z" fill="#191B1F"/>
<path id="Vector_2" d="M3.78122 5.1875H9.40591C9.66478 5.1875 9.87462 4.97763 9.87462 4.71875C9.87462 4.45987 9.66478 4.25 9.40591 4.25H3.78122C3.52234 4.25 3.3125 4.45987 3.3125 4.71875C3.3125 4.97763 3.52238 5.1875 3.78122 5.1875Z" fill="#191B1F"/>
<path id="Vector_3" d="M3.78122 7.0625H9.40591C9.66478 7.0625 9.87462 6.85263 9.87462 6.59375C9.87462 6.33487 9.66478 6.125 9.40591 6.125H3.78122C3.52234 6.125 3.3125 6.33487 3.3125 6.59375C3.3125 6.85263 3.52238 7.0625 3.78122 7.0625Z" fill="#191B1F"/>
<path id="Vector_4" d="M3.78122 8.9375H9.40591C9.66478 8.9375 9.87462 8.72763 9.87462 8.46875C9.87462 8.20987 9.66478 8 9.40591 8H3.78122C3.52234 8 3.3125 8.20987 3.3125 8.46875C3.3125 8.72763 3.52238 8.9375 3.78122 8.9375Z" fill="#191B1F"/>
</g>
</g>
<defs>
<clipPath id="clip0_278_3018">
<rect width="16" height="16" fill="white"/>
</clipPath>
</defs>
</svg>
