<svg width="94" height="93" viewBox="0 0 94 93" fill="none" xmlns="http://www.w3.org/2000/svg">
<g clip-path="url(#clip0_1_18610)">
<path d="M0.959961 46.9297V45.8497C1.40996 44.9297 1.82996 44.5597 2.86996 44.4297C4.59996 44.2197 8.64996 44.2297 10.4 44.4097C13.23 44.6997 13.19 48.0597 10.4 48.3597C8.69996 48.5397 4.55996 48.5397 2.86996 48.3397C1.82996 48.2097 1.41996 47.8397 0.959961 46.9197L0.959961 46.9297Z" fill="white" fill-opacity="0.7"/>
<path d="M47.5301 0.379883C48.3701 0.759883 48.8301 1.34988 48.9501 2.27988C49.1601 3.84988 49.1401 8.19988 48.9701 9.80988C48.6701 12.5899 45.3001 12.6299 45.0201 9.80988C44.8401 8.05988 44.8301 4.00988 45.0401 2.28988C45.1701 1.24988 45.5401 0.839883 46.4601 0.379883H47.5401L47.5301 0.379883Z" fill="white" fill-opacity="0.7"/>
<path d="M44.6198 19.66C66.7298 17.85 81.5798 41.99 69.7198 60.75C65.8898 66.81 59.1698 68.74 58.4998 76.85C58.0898 81.8 60.5998 91.53 53.3498 92.37C50.6398 92.69 43.3198 92.7 40.6198 92.37C33.5498 91.51 35.8598 81.24 35.4698 76.49C34.8898 69.42 28.7398 66.99 25.0798 61.9C13.1298 45.26 24.4398 21.31 44.6098 19.66H44.6198ZM54.7198 77.12C54.8398 73.11 56.8298 68.94 59.4798 65.97C61.2598 63.98 63.4098 62.68 65.1398 60.49C75.9898 46.7 67.6698 25.9 50.2898 23.59C31.3698 21.07 17.5298 41.52 27.1798 58.19C30.5098 63.94 36.4598 65.7 38.5898 72.67C39.0298 74.11 39.1798 75.56 39.4298 77.04L54.7298 77.12H54.7198ZM54.7198 80.89H39.2598V86.19C39.2598 86.48 39.6598 87.62 39.8798 87.91C40.2498 88.38 40.7498 88.55 41.3298 88.62C43.6398 88.88 50.5598 88.91 52.8198 88.6C53.6398 88.49 54.7198 87.8 54.7198 86.91V80.89Z" fill="white" fill-opacity="0.7"/>
<path d="M83.2704 44.46C84.5104 44.27 90.6504 44.24 91.7004 44.56C93.6504 45.15 93.4704 48.03 91.1104 48.35C89.8704 48.52 83.8504 48.53 82.8204 48.22C80.9204 47.65 81.0404 44.81 83.2604 44.46H83.2704Z" fill="white" fill-opacity="0.7"/>
<path d="M19.7097 22.25L13.9997 16.01C13.4097 14.1 14.8597 12.74 16.6997 13.49L22.7897 19.62C23.7897 21.33 21.3197 23.55 19.7097 22.25Z" fill="white" fill-opacity="0.7"/>
<path d="M79.1404 79.2398C78.8204 79.4198 77.0104 79.2898 76.5904 79.0798C76.1104 78.8298 71.9704 74.6298 71.4404 73.9798C70.8504 73.2498 70.4104 72.7498 70.6604 71.7598C71.0004 70.4198 72.4304 69.9698 73.5904 70.7498C74.4304 71.3198 78.6304 75.5298 79.2704 76.3998C79.6804 76.9498 79.8004 77.2098 79.7204 77.9298C79.6904 78.2098 79.3004 79.1398 79.1404 79.2398Z" fill="white" fill-opacity="0.7"/>
<path d="M20.8799 70.3199C22.2999 70.1499 23.7099 72.0199 22.7199 73.2499L16.7799 79.1799C14.8399 79.7399 13.1999 78.6999 14.0799 76.6599C16.0799 75.1199 18.0498 72.1299 20.0099 70.7299C20.2698 70.5399 20.5399 70.3599 20.8699 70.3199H20.8799Z" fill="white" fill-opacity="0.7"/>
<path d="M77.3203 13.7199C79.1303 13.2999 80.4103 14.9899 79.4303 16.5499C79.1103 17.0599 74.3003 21.8599 73.7703 22.2099C71.8503 23.4599 69.6903 21.7299 70.9003 19.8799C71.3803 19.1599 75.8703 14.7099 76.6503 14.1299C76.8703 13.9599 77.0203 13.7899 77.3203 13.7199Z" fill="white" fill-opacity="0.7"/>
<path d="M60.8897 47.77C60.3197 47.16 60.4197 45.11 60.2497 44.19C59.2197 38.6 54.7897 34.17 49.1897 33.14C47.6497 32.86 44.9897 33.35 45.0297 31.05C45.0797 28.16 49.5897 29.24 51.3797 29.7C57.5097 31.26 62.3897 36.28 63.7997 42.44C64.0797 43.67 64.4297 45.58 64.2097 46.8C63.9397 48.3 61.8797 48.84 60.8897 47.78V47.77Z" fill="white" fill-opacity="0.7"/>
</g>
<defs>
<clipPath id="clip0_1_18610">
<rect width="92.08" height="92.24" fill="white" transform="translate(0.959961 0.379883)"/>
</clipPath>
</defs>
</svg>
