<svg width="86" height="91" viewBox="0 0 86 91" fill="none" xmlns="http://www.w3.org/2000/svg">
<g clip-path="url(#clip0_1_18686)">
<path d="M44.7346 0.499079C58.131 1.73395 64.611 18.255 55.7361 28.4645C54.6198 29.7493 53.1728 30.6224 52.15 31.9197L53.5782 33.4352C54.8069 35.2625 54.2705 37.7011 52.5679 39.0171C52.2186 39.2915 51.5451 39.4599 51.3455 39.728C51.096 40.0648 50.8029 41.4556 50.4037 42.1292C47.6222 46.8504 38.4542 46.8566 35.6165 42.2414C35.1737 41.5242 34.8806 40.096 34.6061 39.728C34.4003 39.4536 33.733 39.2977 33.3837 39.0171C31.6437 37.6325 31.151 35.3436 32.3734 33.4352L33.8016 31.9197C32.7725 30.6224 31.3319 29.7493 30.2155 28.4645C21.2907 18.2425 27.7956 1.74019 41.2171 0.499079C42.1463 0.411765 43.8115 0.411765 44.7346 0.499079ZM44.3853 31.4582H49.0504C50.1293 29.2628 52.3683 28.0966 53.8838 26.263C60.3513 18.4359 56.3598 6.36159 46.6368 3.79207C33.6394 0.361872 23.5734 15.4797 31.8932 26.0883C33.3837 27.9843 35.9034 29.1256 36.6393 31.4582H41.5663V25.4771C37.0572 23.9491 38.2796 17.3008 43.0631 17.3756C47.722 17.4505 48.8071 24.0177 44.3791 25.4771V31.4582H44.3853ZM42.5767 20.2321C40.9551 20.5875 41.3168 23.4253 43.375 22.9762C44.9965 22.6207 44.6348 19.783 42.5767 20.2321ZM35.5354 34.3083C34.1072 34.7262 34.2008 36.8404 35.6851 37.0774C40.2379 36.7095 45.6638 37.6076 50.1106 37.0899C51.8943 36.8841 51.832 34.5266 50.2728 34.2834L35.5354 34.3083ZM48.2583 39.8964H37.6995C38.5665 42.8152 41.7347 42.9088 44.3042 42.7154C46.0879 42.5845 47.7656 41.7113 48.2583 39.8964Z" fill="#C8DCDA"/>
<path d="M0.740234 29.5184C1.40133 28.3896 2.42415 28.639 3.55923 28.639C2.87943 24.8221 7.05179 24.8221 6.37199 28.639C10.1951 27.9592 10.1889 32.1316 6.37199 31.4518C7.05179 35.2687 2.87943 35.2687 3.55923 31.4518C2.42415 31.4518 1.40133 31.7012 0.740234 30.5724V29.5184Z" fill="#C8DCDA"/>
<path d="M41.5664 58.7189L38.1175 65.0305L37.4314 65.2363L3.02347 58.1077C2.26883 57.8208 1.96323 57.0225 2.23141 56.2492L8.31221 45.7902C13.7007 44.493 19.2826 43.8818 24.746 42.8901C26.8415 43.6323 26.5234 45.31 24.3593 45.8276C22.4134 46.2891 20.162 46.47 18.1662 46.7631L18.3409 47.0313L43.0507 51.1413L67.9727 46.9378L60.5135 45.5158C59.2849 44.5928 59.9086 42.9899 61.368 42.8901C66.7752 43.9441 72.3134 44.4867 77.652 45.7964L83.7328 56.2492C84.0946 57.4279 83.3649 58.1576 82.2298 58.2824L48.5266 65.2363L47.8405 65.0305L44.3916 58.7189V87.3891L74.7582 82.2937L75.2322 81.7137L75.3756 63.5649C75.6313 61.9308 78.0886 62.0431 78.1822 63.727C77.8578 69.4024 78.6063 75.5331 78.1822 81.1524C77.9826 83.8279 76.6105 84.8508 74.1595 85.3996C64.0622 87.6386 53.2353 88.4494 43.0632 90.5698C32.835 88.493 21.9394 87.6511 11.7985 85.3996C9.48471 84.8882 7.99413 83.8903 7.77585 81.327C7.29562 75.7077 8.15005 69.4211 7.77585 63.727C7.86316 62.0493 10.3267 61.9246 10.5824 63.5649L10.7258 81.7137L11.1998 82.2937L41.5664 87.3891V58.7189ZM40.8616 53.6173L10.152 48.5094C9.76536 48.5406 9.54084 49.1393 9.33503 49.4512C8.4806 50.7359 6.47237 54.0476 5.94225 55.3823C5.87365 55.5631 5.80505 55.6941 5.84247 55.8999L36.5396 62.2364L40.8616 53.6173ZM80.1093 55.8999C80.1467 55.6941 80.0844 55.5631 80.0095 55.3823C79.4794 54.0539 77.4712 50.7422 76.6167 49.4512C76.4109 49.1393 76.1864 48.5406 75.7997 48.5094L45.0901 53.6173L49.4122 62.2364L80.1093 55.8999Z" fill="#C8DCDA"/>
<path d="M21.1516 25.8264C25.6732 30.1983 29.6023 34.4642 31.0617 40.807C31.4297 42.4098 32.0097 45.8088 31.6729 47.3368C31.4359 48.3971 29.9516 48.7027 29.2406 47.9044C28.7417 47.3431 28.8352 44.418 28.6918 43.3516C27.7937 36.7531 23.8458 32.2377 19.1247 27.9406C18.9625 28.3897 19.1059 28.8262 18.9064 29.3002C18.4511 30.373 16.6487 30.2794 16.2994 29.1755C16.1186 28.608 16.1248 24.8535 16.2308 24.1612C16.2932 23.7745 16.5115 23.4003 16.8545 23.2007C17.3721 22.9076 21.1578 22.9076 21.9437 23.0012C24.1702 23.2569 23.403 26.4126 21.1454 25.8201L21.1516 25.8264Z" fill="#C8DCDA"/>
<path d="M66.9048 27.9409C61.4414 32.5997 57.7742 37.5454 57.0508 44.9172C56.9447 45.9899 57.4936 47.9919 56.0404 48.31C53.8825 48.7777 54.1444 46.1521 54.2318 44.7426C54.7307 36.9093 59.1525 30.947 64.7905 25.9202C64.4849 25.7455 64.0546 25.8827 63.6866 25.7954C62.5266 25.5272 62.2958 23.7872 63.3187 23.2134C63.8363 22.9203 67.622 22.9203 68.4078 23.0138C69.1936 23.1074 69.6365 23.5253 69.73 24.336C69.8173 25.0907 69.8236 28.7766 69.5928 29.3067C68.9005 30.9345 66.2873 29.7932 66.9048 27.9471V27.9409Z" fill="#C8DCDA"/>
<path d="M73.9479 8.94381C77.7647 8.26401 77.7647 12.4364 73.9479 11.7566C74.6277 15.5734 70.4553 15.5734 71.1351 11.7566C67.3182 12.4364 67.3182 8.26401 71.1351 8.94381C70.4553 5.12694 74.6277 5.13318 73.9479 8.94381Z" fill="#C8DCDA"/>
<path d="M14.816 11.7562C18.6329 11.0764 18.6391 15.2488 14.816 14.569C15.4958 18.3858 11.3235 18.3858 12.0033 14.569C8.18641 15.2488 8.18641 11.0764 12.0033 11.7562C11.3235 7.93934 15.4958 7.93934 14.816 11.7562Z" fill="#C8DCDA"/>
<path d="M82.3961 34.271C86.213 33.5912 86.213 37.7635 82.3961 37.0837C83.0759 40.9006 78.9036 40.9006 79.5834 37.0837C75.7665 37.7635 75.7665 33.5912 79.5834 34.271C78.9036 30.4541 83.0759 30.4603 82.3961 34.271Z" fill="#C8DCDA"/>
</g>
<defs>
<clipPath id="clip0_1_18686">
<rect width="84.52" height="90.1268" fill="white" transform="translate(0.740234 0.436523)"/>
</clipPath>
</defs>
</svg>
