<svg width="88" height="89" viewBox="0 0 88 89" fill="none" xmlns="http://www.w3.org/2000/svg">
<g clip-path="url(#clip0_1_18672)">
<path d="M71.6135 0.595703C75.6101 1.6058 75.7981 4.88971 75.5751 8.44036C78.5923 9.36738 79.961 12.6338 78.3256 15.4017C80.8792 17.129 81.8456 19.8925 80.0003 22.573C82.9738 24.5713 82.6983 28.8172 79.6593 30.6275C82.0074 33.7672 79.3051 38.0568 75.5489 37.8994L75.5795 45.145C78.8066 47.41 80.302 50.917 80.0747 54.8524C80.3108 55.1935 83.1574 54.9355 83.8352 55.0273C85.8773 55.3072 87.4995 57.3886 87.6963 59.3782C87.9937 62.3691 87.9631 68.5084 87.7051 71.53C87.329 75.9027 83.4592 76.3793 79.8517 76.082C79.0733 79.1341 75.5708 80.446 72.8947 78.8149C71.4036 81.4342 68.2683 82.23 65.7234 80.5072C63.7207 83.485 59.5273 83.1789 57.6732 80.1792C54.4899 82.5011 50.327 79.8032 50.4014 76.0557L42.9459 76.2175C40.7639 79.4096 37.2482 80.7433 33.4527 80.5815C33.1116 80.822 33.3653 83.5418 33.2909 84.1846C33.0373 86.4103 30.8991 88.0282 28.7608 88.2119C25.6824 88.4743 19.8492 88.4743 16.7708 88.2119C12.3675 87.8358 11.9346 83.9791 12.2144 80.3629C9.19287 79.4315 7.82858 76.1694 9.46398 73.4015C6.91031 71.6743 5.94394 68.9107 7.78923 66.2302C4.79391 64.2275 5.09563 59.9991 8.1303 58.1757C5.77778 55.0011 8.47575 50.7552 12.2407 50.9039L12.21 43.6583C9.00484 41.2882 7.50937 37.9562 7.71489 33.9508C7.47876 33.6097 4.63212 33.8677 3.95435 33.7759C2.10469 33.5223 0.609221 31.7076 0.0888672 30.0285V16.6829C1.1252 12.7125 4.40037 12.5026 7.93353 12.7213C8.85617 9.65161 12.1226 8.39664 14.8949 9.97082C16.5653 7.43027 19.4338 6.53386 22.0662 8.29606C24.0732 5.34885 28.306 5.58498 30.1207 8.63714C33.2822 6.29336 37.4931 8.9957 37.3925 12.7475L44.6338 12.7125C46.0768 11.0028 47.5023 9.60788 49.6668 8.8514C50.021 8.72896 51.4246 8.29606 51.6782 8.29606H54.503C54.2013 4.79351 54.5555 1.6058 58.4384 0.595703L71.6135 0.595703ZM72.9821 8.29606C72.8203 6.3502 73.7473 3.94521 71.3161 3.20184L58.8757 3.17561C58.2767 3.15812 57.0698 4.30814 57.0698 4.78914V8.29606H64.3416C64.3897 8.29606 64.9844 8.8995 65.0238 8.98258C65.3648 9.77404 65.0238 10.4649 64.2673 10.7841C59.7503 11.5144 52.286 9.48107 48.5342 12.3277C47.8608 12.8393 46.1205 15.3055 45.6963 15.3055H37.3969V31.2179H44.6687C44.7649 31.2179 45.5826 31.6114 45.692 31.7338C45.9762 32.0574 46.2386 33.1856 46.4878 33.6753C48.1319 36.8893 51.0704 39.3817 54.503 40.4574V36.0934C54.503 35.7699 55.2682 35.2976 55.6093 35.3151L75.9818 35.3282C78.4961 35.0265 78.9072 31.3359 75.4702 31.0386C72.0332 30.7412 68.0016 31.4409 64.6827 31.0473C62.9904 30.8462 63.2659 28.6511 64.897 28.5199L78.0195 28.4674C80.1577 27.8902 79.9391 24.7856 77.8183 24.4095C73.7167 23.9854 68.863 24.8424 64.8532 24.3746C63.3184 24.1953 63.0342 22.3238 64.5515 21.8384C68.2596 21.4099 72.8815 22.2975 76.4759 21.7859C79.0296 21.423 79.0515 17.9729 76.2748 17.5662C72.8291 17.0634 68.417 17.8242 64.8489 17.5269C63.091 17.3782 63.1916 15.3624 64.5865 15.0257C67.7611 14.5403 71.8802 15.428 74.9411 14.9426C76.7427 14.6584 76.97 11.8904 75.2559 11.0553C74.1496 10.5174 71.3642 11.0028 69.9868 10.8497C67.8485 10.6136 68.6006 8.27857 69.4752 8.27857H72.9821V8.29606ZM39.9637 33.789H35.5997C35.2805 33.789 34.7427 33.0544 34.8258 32.6784C34.4016 26.2198 35.3986 19.0223 34.8345 12.6513C34.5634 9.59476 30.8378 9.42422 30.5449 12.8218C30.2519 16.2194 31.0346 20.6053 30.5405 23.7667C30.3219 25.1529 28.2361 25.1179 27.9999 23.4213C27.4534 19.4946 28.4591 14.4091 27.9868 10.43C27.7463 8.37477 24.4143 8.18237 23.9508 10.3381C23.4611 14.4966 24.3531 19.3722 23.8808 23.4432C23.7016 24.9867 21.8519 25.2316 21.3141 23.7799C20.9948 20.0368 21.7251 15.6379 21.3141 11.9779C21.0036 9.22745 17.3086 9.16186 17.0288 12.3146C16.7139 15.874 17.4442 20.1286 17.0375 23.6181C16.8495 25.2316 14.72 25.131 14.4839 23.43C14.051 20.3254 14.8424 16.4468 14.3877 13.2591C13.5787 11.1602 10.7889 11.5581 10.3604 13.6876C10.8414 20.9201 9.72634 28.9659 10.3691 36.1022C10.5572 38.1792 11.6372 39.6922 13.1021 41.0696C13.5656 41.5069 14.8162 42.0185 14.8162 42.7793V50.9082H30.7285V43.4659C30.7285 43.4178 31.1527 42.7006 31.2489 42.6175C31.5768 42.3333 32.3858 42.2196 32.8449 41.9879C36.2862 40.2607 38.8006 37.4709 39.9681 33.7978L39.9637 33.789ZM7.79797 15.3099H4.29105C4.1074 15.3099 3.25909 15.9483 3.10167 16.1713C2.80433 16.5955 2.70375 17.1027 2.66003 17.61C2.3277 21.3618 2.91364 25.6077 2.67752 29.4119C2.66003 29.9104 3.73134 31.2179 4.12052 31.2179H7.79797V15.3055V15.3099ZM54.4768 43.3959C50.4976 41.8479 46.9557 39.4954 44.7212 35.7874C44.2971 35.0834 43.7811 32.932 42.7885 34.1388C41.3411 37.4752 39.2859 40.8991 36.2469 42.998C35.7265 43.3565 33.5795 44.336 33.4527 44.4803C33.2647 44.699 33.2078 45.0488 33.2734 45.3111C33.3128 45.4729 35.8446 46.5093 36.3037 46.7629C38.512 47.9785 40.9738 49.8544 42.4168 51.9402C42.806 52.4999 43.7505 54.6425 43.9691 54.8349C44.1877 55.0273 44.5376 55.0754 44.7999 55.0142C45.0186 54.9617 46.514 51.551 46.8289 51.0175C48.2456 48.6125 50.1172 46.6711 52.4959 45.2237C53.2961 44.7383 54.8135 44.5415 54.4636 43.3959H54.4768ZM72.9821 37.895H57.0698V45.3374C57.0698 46.33 55.3076 46.6273 54.6123 46.9859C51.3546 48.6694 48.9846 51.5598 47.8302 55.0011H52.1942C52.5134 55.0011 53.0513 55.7357 52.9682 56.1118C53.4142 62.544 52.3604 69.8071 52.9594 76.1388C53.248 79.2172 56.9736 79.2522 57.2491 76.1388C57.5639 72.5969 56.9954 68.6046 57.2491 65.0146C57.8394 63.5585 59.5754 63.7728 59.794 65.3688C60.3318 69.243 59.3349 74.2717 59.8071 78.1896C60.0826 80.4722 63.2003 80.634 63.8825 78.4913C64.3023 74.3285 63.4452 69.418 63.9131 65.3469C64.0924 63.8034 65.942 63.5585 66.4799 65.0102C66.7903 68.7008 66.0776 73.0298 66.4799 76.6417C66.8122 79.5933 70.4853 79.6326 70.7651 76.4755C71.0887 72.8243 70.5072 68.7096 70.7651 65.0102C71.2593 63.6328 72.9996 63.7684 73.3188 65.1895L73.4106 75.5354C74.1103 77.5949 77.1799 77.2626 77.4423 75.1069V52.5174C77.1581 50.5103 76.1348 49.0673 74.7006 47.7249C74.2371 47.2876 72.9865 46.776 72.9865 46.0152V37.8863L72.9821 37.895ZM50.397 57.5723H43.1252C43.029 57.5723 42.2113 57.1787 42.102 57.0563C41.8177 56.7327 41.5554 55.6045 41.3061 55.1148C39.662 51.9008 36.7235 49.4084 33.2909 48.3327V52.6967C33.2909 53.0202 32.5257 53.4925 32.1846 53.475L11.8121 53.4619C9.29782 53.7636 8.88678 57.4542 12.3237 57.7515C15.7607 58.0489 19.7923 57.3492 23.1112 57.7428C24.8035 57.9439 24.528 60.139 22.897 60.2702L9.77444 60.3227C7.63618 60.8999 7.85482 64.0045 9.97559 64.3806C14.0772 64.8091 18.9309 63.9477 22.9407 64.4156C24.4799 64.5948 24.751 66.4707 23.2424 66.9517C19.5344 67.3803 14.9124 66.4926 11.318 67.0042C8.76434 67.3671 8.74248 70.8172 11.5192 71.2239C14.9692 71.7267 19.3769 70.9571 22.9451 71.2632C24.7029 71.4119 24.6067 73.4277 23.2074 73.7644C20.0328 74.2498 15.9137 73.3621 12.8528 73.8475C10.8108 74.1711 10.7015 77.6868 13.5219 77.9491C14.7768 78.0672 18.8566 77.6343 19.5999 78.2027C20.4876 78.8761 19.9673 80.5115 19.1714 80.5115H14.8074V84.0185C14.8074 84.1671 15.389 84.9761 15.577 85.1335C15.9925 85.4833 16.4122 85.6014 16.937 85.6539C20.7062 86.0212 25.0746 85.374 28.9095 85.6364C29.408 85.6539 30.7154 84.5825 30.7154 84.1934V80.5159H24.3006C24.2525 80.5159 23.6622 79.9168 23.6185 79.8294C23.3036 79.1429 23.6841 78.2902 24.375 78.0278C29.0538 77.2976 35.9452 79.4708 39.7013 76.0732C40.2304 75.5922 41.6341 73.5021 42.0932 73.5021H50.3926V57.5897L50.397 57.5723ZM79.996 73.4846H83.5029C83.6865 73.4846 84.5348 72.8462 84.6923 72.6232C84.9896 72.199 85.0902 71.6918 85.1339 71.1845C85.4662 67.4327 84.8803 63.1868 85.1164 59.3826C85.1339 58.8841 84.0626 57.5766 83.6734 57.5766H79.996V73.489V73.4846Z" fill="#C8DCDA"/>
</g>
<defs>
<clipPath id="clip0_1_18672">
<rect width="87.8086" height="87.8086" fill="white" transform="translate(0.0957031 0.595703)"/>
</clipPath>
</defs>
</svg>
