<svg width="88" height="107" viewBox="0 0 88 107" fill="none" xmlns="http://www.w3.org/2000/svg">
<g clip-path="url(#clip0_1_18640)">
<path d="M87.5651 25.0502V26.1266L86.5571 27.1688L75.1785 33.456C74.0395 33.1884 73.3732 32.2829 73.9199 31.1325L85.2472 24.3498C86.4546 23.8771 86.7165 24.3384 87.5594 25.0445L87.5651 25.0502Z" fill="#C8DCDB"/>
<path d="M44.432 0.237305L45.3033 1.62688C44.899 5.60199 45.8045 10.5225 45.3033 14.378C45.0755 16.1377 42.5185 16.32 42.2679 14.1559C42.1028 12.715 42.1084 1.97428 42.4331 1.1542C42.5584 0.835279 42.9855 0.573309 43.1336 0.237305H44.4263L44.432 0.237305Z" fill="#C8DCDB"/>
<path d="M69.4851 37.3115C72.6458 38.8947 73.8361 43.1147 72.5206 46.3096C75.4193 48.3256 76.9114 51.5489 76.0401 55.0457C75.6243 56.72 74.2063 59.0322 72.475 59.5789C73.9044 63.1838 72.6174 66.84 69.4737 68.9927C73.4545 77.5124 63.5452 84.7849 56.734 78.3439C53.2829 83.8965 45.2472 81.7951 44.6549 75.2117L44.6436 31.1893C44.7518 24.492 53.0949 22.2368 56.8365 27.6186C62.4575 22.4589 71.0797 26.4739 70.3166 34.2191C70.2084 35.341 69.6275 36.2408 69.4851 37.3172V37.3115ZM65.4246 36.7647C65.6752 36.4686 66.1706 36.3205 66.5294 35.8194C68.7562 32.7099 66.2618 28.1938 62.4461 28.2678C57.9471 28.3532 56.8707 33.5869 57.6908 37.1406C57.9812 38.4049 59.4164 39.8913 58.0211 40.8993C55.4925 42.7274 54.3877 36.685 54.382 35.1018C54.3763 32.9947 55.5495 30.916 54.0232 28.9398C52.8273 27.3908 50.6859 27.2142 49.1084 28.3191C47.8498 29.2018 47.7587 30.1699 47.6619 31.6165C46.7051 45.6091 48.4079 60.6837 47.6619 74.7845C47.5366 79.295 54.0289 79.7904 54.7351 75.5875C54.9173 74.5055 54.4048 72.8368 56.0222 72.5407C57.7534 72.2275 57.7819 74.5283 58.4881 75.5989C61.421 80.0581 68.6309 77.1992 67.1502 71.4643C66.7572 69.9438 64.895 69.2547 64.9861 68.1157C65.1 66.635 66.8882 66.84 67.8848 66.2933C69.6731 65.3138 70.4134 63.144 69.8268 61.2418C69.2402 59.3397 67.714 59.465 66.239 58.5766C64.8437 57.7337 60.2535 53.8611 63.2662 52.6025C64.633 52.033 64.969 53.4169 65.5841 54.0547C66.7686 55.2963 69.804 57.8875 71.5125 56.7542C73.7165 55.2906 73.7905 51.4578 71.9169 49.6582C70.6697 48.4623 69.1662 49.5728 68.5398 48.0579C68.0557 46.8961 69.1036 46.4576 69.5022 45.6831C70.607 43.5532 69.9464 40.6601 67.6627 39.6635C66.9395 39.3503 65.9827 39.4357 65.4474 38.8605C64.8608 38.2284 64.8722 37.3969 65.4246 36.7533V36.7647Z" fill="#C8DCDB"/>
<path d="M33.9247 81.0949C33.2071 80.3318 34.0671 76.8123 33.4406 76.294L28.4005 74.2837C26.3788 75.6676 25.7979 78.572 23.1896 76.4136C21.8798 75.3316 17.375 70.9635 16.5265 69.7049C14.892 67.2846 18.0527 66.5727 18.9582 64.6876L17.0276 59.8127C14.8578 59.528 11.9192 60.7467 11.6459 57.7511C11.4522 55.5927 11.3896 50.1141 11.6743 48.0525C12.0445 45.4101 15.1881 46.7313 17.0276 46.3953L18.9582 41.378C18.1666 40.2162 15.5811 38.7128 16.0595 37.1352L23.742 29.2761C25.3993 27.5278 27.6488 32.004 28.486 31.8731L33.6228 29.7773C34.0329 28.0631 32.6148 24.9024 35.0523 24.6233C36.1457 24.498 39.3862 24.4753 40.4341 24.6404C41.2143 24.7657 41.6072 25.2441 41.6357 26.0243L41.5389 40.8199C41.1687 41.9589 38.9647 41.7425 37.9567 41.9817C25.8663 44.852 26.2706 61.5839 38.5604 64.0555C39.7108 64.289 41.1118 63.7537 41.63 65.3027L41.5218 80.7191C41.1175 81.2544 40.6846 81.5107 40.0183 81.5904C38.9818 81.7157 34.534 81.7498 33.9247 81.1006V81.0949ZM38.6117 27.6417H36.6697V30.9846C36.6697 32.4938 33.4976 32.8982 32.3586 33.3595C31.5043 33.7069 28.8675 35.2958 28.3322 35.347C27.0508 35.4723 25.3309 32.5109 24.7273 32.6134L19.7327 37.7788C20.4845 38.7469 22.5802 39.977 22.4379 41.3211C22.3866 41.8051 21.1394 43.7414 20.8262 44.4761C20.4674 45.3133 19.3284 49.4307 18.6621 49.4307H14.6699V56.4413L14.9945 56.7659H18.6621C19.5619 56.7659 20.0744 59.8127 20.3934 60.6442C20.7806 61.6693 22.3695 64.1979 22.4379 64.8756C22.5745 66.231 20.4902 67.4383 19.7384 68.4179L24.7045 73.5946C25.7125 72.8429 26.9768 70.656 28.3493 70.7927C29.027 70.861 31.5556 72.4499 32.5807 72.8372C33.4178 73.1561 35.3826 73.4921 35.8951 73.8338C36.1514 74.0046 36.6697 75.0127 36.6697 75.212V78.555H38.6117V67.1194C22.0506 64.6649 21.9367 41.099 38.6117 38.8551V27.636V27.6417Z" fill="#C8DCDB"/>
<path d="M52.8429 98.1911C52.2734 109.621 35.7465 109.615 35.1599 98.1911C33.8273 98.0202 29.8636 98.7378 29.2314 97.3255V86.7555L30.7292 86.1006C39.2774 86.7043 48.8507 85.3318 57.2793 86.1006C57.8944 86.1576 58.3841 86.2202 58.7771 86.7555V97.3255C58.1392 98.7378 54.1755 98.0202 52.8429 98.1911ZM55.8612 89.1304H32.1359V95.1727H55.8612V89.1304ZM49.8246 98.1911H38.1783C38.6396 105.612 49.3633 105.612 49.8246 98.1911Z" fill="#C8DCDB"/>
<path d="M0.933321 27.5735C-0.239848 26.4914 0.830811 24.4925 2.37985 24.931L13.3655 31.2183C15.0968 32.3345 14.1742 34.6581 12.0784 34.0202L0.933321 27.5735Z" fill="#C8DCDB"/>
<path d="M18.4064 7.41847C18.993 6.6952 20.3029 6.79771 20.8097 7.58362L27.1938 18.6775C27.843 20.5113 25.5935 21.5933 24.409 19.9475C22.1651 16.838 20.5136 12.4642 18.2925 9.24086C18.0306 8.71123 18.0249 7.89115 18.4064 7.41847Z" fill="#C8DCDB"/>
<path d="M62.9235 20.0273C61.8187 20.9442 59.8539 19.8508 60.4917 18.3587L66.7676 7.37304C67.7301 5.77275 70.0138 6.65547 69.5753 8.43801L62.9235 20.0273Z" fill="#C8DCDB"/>
<path d="M51.1797 54.5501C50.4394 53.8098 50.7127 52.4088 51.7093 52.0728C53.4919 51.4748 54.3518 52.0102 55.8667 50.1935C57.074 48.7469 56.6241 47.1979 57.2449 46.3949C58.2586 45.0908 59.9728 45.9735 59.9728 47.5965C59.9785 50.0796 58.0536 52.9726 55.8667 54.0775C54.7903 54.6242 52.108 55.4841 51.174 54.5501H51.1797Z" fill="#C8DCDB"/>
<path d="M60.5555 62.8423C61.5464 62.6772 62.4804 63.6396 62.338 64.6306C62.1842 65.7126 57.9415 67.8027 56.8708 68.2412C55.4243 68.8335 50.1621 70.8324 50.4753 67.6831C50.6291 66.1625 52.6565 66.4643 53.7158 66.1568C54.3422 65.9746 55.037 65.7354 55.6464 65.4962C56.8936 65.0064 59.7525 62.9733 60.5555 62.8366V62.8423Z" fill="#C8DCDB"/>
</g>
<defs>
<clipPath id="clip0_1_18640">
<rect width="87.1277" height="106.525" fill="white" transform="translate(0.436523 0.237305)"/>
</clipPath>
</defs>
</svg>
